<?xml version="1.0" standalone="no"?>
<!DOCTYPE svg PUBLIC "-//W3C//DTD SVG 20010904//EN"
 "http://www.w3.org/TR/2001/REC-SVG-20010904/DTD/svg10.dtd">
<svg version="1.0" xmlns="http://www.w3.org/2000/svg"
 width="1024.000000pt" height="1024.000000pt" viewBox="0 0 1024.000000 1024.000000"
 preserveAspectRatio="xMidYMid meet">
<metadata>
Created by potrace 1.14, written by Peter Selinger 2001-2017
</metadata>
<g transform="translate(0.000000,1024.000000) scale(0.100000,-0.100000)"
fill="#000000" stroke="none">
<path d="M0 10010 c0 -226 0 -230 21 -230 11 0 18 -3 16 -8 -3 -4 11 -7 30 -8
19 0 38 -7 43 -13 5 -9 17 -11 41 -5 19 4 36 8 39 8 3 1 21 13 41 29 21 16 48
27 67 27 17 0 32 5 34 10 4 13 95 -3 111 -19 8 -8 5 -19 -11 -40 -37 -50 -62
-101 -62 -124 0 -12 -9 -28 -20 -35 -13 -8 -20 -8 -20 -1 0 5 -5 7 -10 4 -11
-7 -7 35 4 54 5 8 -24 21 -49 21 -6 0 -17 -16 -23 -34 -15 -40 -38 -51 -90
-42 -67 12 -90 25 -94 57 -3 18 0 29 8 29 6 0 14 10 18 23 8 32 7 39 -4 32 -6
-3 -10 -14 -10 -23 0 -14 -7 -17 -40 -14 l-40 4 0 -95 0 -96 57 5 c85 9 95 10
125 22 74 30 168 15 168 -27 0 -44 -104 -107 -135 -81 -10 9 -19 8 -37 -1 -13
-7 -29 -12 -36 -10 -8 1 -24 -5 -37 -13 -14 -9 -36 -16 -50 -16 -26 0 -33 -18
-14 -37 9 -9 5 -14 -15 -19 -23 -5 -26 -11 -26 -51 0 -43 1 -45 24 -39 13 3
43 -1 66 -9 23 -8 64 -15 91 -15 39 0 51 4 68 26 12 15 21 35 21 46 0 25 18
43 61 61 42 17 52 30 68 84 9 32 22 49 54 70 32 22 46 40 57 76 27 84 55 101
121 72 51 -22 67 -38 89 -89 12 -25 27 -46 35 -46 7 0 20 -3 28 -6 15 -5 47
44 47 73 0 7 12 14 28 15 28 1 49 4 67 8 6 1 13 2 17 1 7 0 5 13 -6 47 -4 12
-16 22 -27 22 -23 0 -23 4 -2 56 24 58 40 66 102 51 28 -6 51 -15 51 -19 0 -5
5 -8 11 -8 5 0 25 -10 44 -23 25 -17 31 -27 25 -37 -5 -8 -15 -15 -22 -15 -23
-1 -58 -29 -58 -47 0 -10 5 -18 10 -18 6 0 10 -7 10 -15 0 -13 2 -13 14 -3 10
10 11 15 2 21 -6 5 13 6 42 3 44 -4 52 -3 52 12 0 13 2 14 9 3 6 -9 11 -10 15
-2 4 6 17 11 29 11 12 0 30 7 41 15 17 13 17 15 3 29 -9 9 -25 16 -36 16 -14
0 -19 5 -15 15 4 8 16 15 29 15 12 0 39 7 58 15 51 21 73 10 68 -33 -2 -9 4
-12 16 -8 10 3 73 6 140 8 90 2 123 6 123 16 0 6 9 12 19 12 11 0 23 5 26 11
4 6 25 9 48 7 32 -2 41 1 43 15 1 12 -5 17 -21 17 -13 0 -29 10 -38 24 -15 22
-15 25 3 41 43 39 109 -11 82 -62 -7 -12 -7 -25 -1 -34 5 -7 9 -11 9 -7 0 4
20 -1 45 -12 24 -10 47 -15 49 -11 3 5 19 11 36 14 35 8 39 28 10 64 -11 14
-20 31 -20 39 0 7 -3 14 -7 16 -5 2 -27 26 -49 53 -50 61 -55 100 -14 108 15
3 37 3 49 0 11 -3 27 0 35 6 26 22 72 -20 49 -43 -21 -21 -3 -46 33 -46 41 0
75 -23 72 -49 -2 -14 3 -26 11 -29 10 -3 12 3 9 27 -3 20 -1 30 6 28 6 -2 11
-15 10 -30 0 -23 4 -26 47 -32 53 -7 81 -1 121 26 14 11 35 19 45 19 10 0 24
5 30 11 6 6 33 12 60 13 57 3 73 10 73 35 0 40 60 52 60 12 0 -9 7 -24 14 -34
13 -16 24 -18 98 -12 147 12 146 12 145 61 -1 24 5 41 16 49 19 14 13 45 -9
45 -9 0 -13 9 -12 25 2 23 28 37 28 15 0 -5 7 -7 15 -4 17 7 19 -9 5 -36 -8
-15 -5 -19 17 -25 14 -3 31 -1 36 4 14 14 117 14 117 0 0 -6 10 -9 23 -7 16 2
22 10 22 27 0 13 6 26 14 29 13 4 123 -107 116 -119 -3 -3 7 -16 20 -27 18
-16 25 -18 25 -8 0 8 9 18 20 21 24 8 26 21 5 29 -8 3 -15 10 -15 17 0 6 7 9
15 5 9 -3 15 0 15 9 0 20 39 19 46 0 4 -8 10 -13 14 -10 4 3 10 -1 13 -9 8
-19 93 -19 123 0 15 10 55 16 122 18 109 4 126 9 117 36 -3 11 0 20 10 24 9 3
15 0 15 -9 0 -8 4 -15 9 -15 5 0 13 -9 16 -20 9 -28 30 -25 63 10 41 43 73 40
113 -10 24 -30 40 -40 61 -40 15 0 28 5 28 11 0 5 5 7 12 3 7 -4 8 -3 4 4 -4
6 -2 21 4 33 13 23 37 23 99 -2 27 -11 35 -11 38 -1 3 6 9 10 14 6 5 -3 9 2 9
10 0 18 16 21 25 5 4 -6 14 -8 22 -4 13 4 13 3 4 -9 -9 -10 -8 -15 3 -19 15
-6 36 10 36 28 0 16 48 38 89 41 19 2 37 8 41 15 11 17 44 3 68 -30 l21 -29
-32 -6 c-18 -3 -40 -15 -50 -26 -16 -19 -15 -21 5 -40 12 -11 37 -24 55 -29
18 -5 60 -26 93 -46 63 -38 88 -40 97 -5 5 20 23 28 23 11 0 -9 77 -26 95 -21
6 2 18 2 28 2 9 0 17 3 17 8 0 12 53 5 58 -8 1 -5 11 -8 22 -5 10 3 26 0 36
-5 12 -7 26 -7 43 0 44 17 78 18 91 2 11 -12 16 -12 34 -1 40 26 69 6 106 -73
8 -18 50 -26 50 -11 0 6 11 11 25 11 14 0 25 5 25 10 0 6 14 10 30 10 17 0 30
-5 30 -11 0 -8 5 -8 15 1 10 9 15 9 15 1 0 -6 10 -11 23 -11 15 0 29 -11 41
-31 18 -31 70 -69 94 -69 7 0 32 -9 54 -20 23 -11 43 -20 45 -20 2 0 3 9 3 20
0 12 -7 20 -16 20 -30 0 -46 28 -39 69 6 34 3 41 -14 51 -12 6 -44 10 -71 9
-43 -2 -55 2 -89 29 -22 18 -47 32 -57 32 -9 0 -28 12 -41 26 -23 25 -29 26
-94 22 -47 -4 -77 -1 -95 8 -30 16 -80 18 -88 5 -7 -11 -74 7 -97 26 -8 7 -21
13 -27 13 -14 0 -15 19 -3 38 6 9 32 13 92 12 95 -1 87 -2 152 4 38 4 51 1 65
-15 11 -10 39 -22 64 -25 41 -6 49 -3 72 19 14 15 32 27 39 29 21 5 67 -44 78
-84 14 -53 40 -62 167 -54 105 6 116 4 170 -36 16 -11 31 -14 50 -9 30 8 44 2
111 -46 38 -29 80 -83 64 -83 -3 0 1 -8 11 -19 9 -10 14 -25 11 -32 -4 -10 1
-15 15 -15 15 0 20 7 20 27 0 40 26 61 64 53 45 -9 51 -19 32 -48 -17 -26 -57
-43 -75 -31 -6 3 -11 1 -11 -4 0 -6 5 -11 10 -11 6 0 10 -9 10 -20 0 -11 4
-20 9 -20 17 0 89 -71 101 -101 15 -36 52 -54 81 -38 16 8 18 13 8 25 -6 8 -8
14 -3 15 5 0 0 4 -11 8 -11 5 -28 4 -39 -1 -13 -7 -16 -7 -12 1 4 6 0 11 -9
11 -13 0 -16 6 -12 23 8 28 -7 57 -16 33 -4 -9 -12 -16 -19 -16 -10 0 -10 2 0
9 11 6 10 10 -4 15 -16 6 -16 8 -2 22 14 14 19 14 57 -3 24 -11 55 -18 72 -15
30 4 30 5 26 58 -4 48 -3 53 17 56 11 2 36 -4 54 -14 40 -22 56 -23 72 -3 22
27 48 16 111 -45 63 -62 79 -69 98 -46 8 10 7 22 -4 49 -8 20 -15 45 -15 56 0
11 -7 27 -15 35 -12 12 -14 20 -5 36 6 11 8 20 4 20 -3 0 -1 7 6 15 7 8 12 33
12 55 0 22 3 42 8 45 19 12 56 -8 84 -43 26 -35 28 -41 22 -104 -7 -77 -3 -91
31 -113 14 -10 22 -12 19 -6 -4 6 -2 11 4 11 6 0 8 -10 4 -24 -4 -18 -1 -27
14 -35 31 -17 45 -14 33 6 -6 12 -5 21 7 31 15 12 15 12 -5 7 -13 -4 -23 -3
-24 2 0 4 -2 16 -4 26 -3 18 6 23 19 10 4 -5 11 -8 14 -9 33 -4 82 -45 82 -68
0 -8 20 -32 44 -53 36 -31 47 -50 65 -110 11 -39 21 -87 21 -107 0 -42 17 -83
38 -91 27 -10 32 10 16 67 -29 100 4 173 50 115 12 -15 27 -27 34 -27 7 0 12
-7 12 -16 0 -8 5 -12 10 -9 6 4 10 -7 10 -24 0 -17 -4 -31 -9 -31 -5 0 -12 -8
-15 -17 -8 -20 24 -50 34 -33 4 7 22 -4 45 -25 21 -19 48 -38 59 -41 11 -4 26
-13 33 -20 10 -10 21 -11 39 -4 14 6 29 8 33 6 4 -3 13 0 21 5 13 8 13 10 0
18 -8 5 -17 8 -21 5 -4 -2 -11 10 -15 28 -4 18 -9 27 -11 20 -3 -9 -15 -3 -34
18 -16 16 -34 30 -39 30 -18 0 -70 43 -70 57 0 7 -6 13 -14 13 -18 0 -28 42
-13 56 7 6 29 14 50 17 32 5 41 2 60 -19 35 -41 92 -64 140 -58 71 10 77 8 77
-21 0 -15 -9 -31 -25 -41 -34 -22 -31 -34 15 -68 22 -17 40 -37 40 -46 0 -22
23 -40 98 -78 67 -34 98 -40 104 -21 3 9 9 9 26 0 12 -6 32 -9 45 -6 19 5 23
11 19 36 -3 17 -11 33 -18 36 -8 3 -14 11 -14 18 0 7 -7 15 -15 19 -8 3 -15
12 -15 21 0 8 -7 15 -15 15 -26 0 -18 46 11 65 15 9 23 12 20 6 -4 -6 -2 -11
3 -11 6 0 11 8 11 19 0 17 20 29 43 27 5 -1 13 7 18 17 6 9 17 17 24 17 8 0
15 5 15 10 0 20 23 9 56 -24 22 -22 37 -51 44 -82 6 -25 9 -48 7 -50 -2 -2
-21 5 -42 15 -27 13 -46 16 -61 10 -15 -5 -24 -4 -27 4 -3 9 -7 9 -17 0 -10
-9 -8 -16 8 -33 18 -19 35 -26 114 -45 10 -2 27 -13 38 -23 12 -11 39 -22 60
-26 42 -7 60 -27 60 -70 0 -23 -4 -26 -32 -26 -18 0 -44 -9 -57 -19 l-24 -19
21 -11 c17 -9 22 -21 22 -49 0 -50 27 -78 82 -87 46 -8 104 -38 111 -58 2 -8
31 -12 89 -12 48 0 90 -3 94 -7 4 -5 14 -8 23 -8 9 0 22 -4 30 -9 12 -8 12
-11 -1 -25 -11 -10 -34 -15 -73 -15 -40 1 -62 -4 -73 -15 -15 -15 -15 -19 2
-51 15 -28 17 -37 6 -50 -7 -8 -18 -15 -25 -15 -18 0 -45 -34 -45 -58 0 -24
-44 -62 -71 -62 -26 0 -95 -73 -102 -108 -4 -20 -17 -33 -52 -50 -47 -23 -55
-44 -19 -50 38 -7 38 -21 -1 -102 -31 -67 -37 -89 -32 -126 5 -49 51 -124 75
-124 13 0 14 15 8 108 -8 121 -3 142 44 196 29 33 37 36 84 36 72 0 115 -15
159 -54 54 -48 90 -52 179 -21 97 35 176 55 216 55 37 0 81 19 131 55 47 35
76 33 90 -6 12 -36 1 -64 -28 -74 -14 -4 -19 -14 -18 -33 2 -20 -5 -29 -25
-40 -29 -14 -39 -54 -17 -68 8 -5 8 -8 0 -14 -9 -5 -8 -17 2 -48 8 -23 11 -46
6 -54 -5 -7 -9 -9 -9 -5 0 4 -9 3 -19 -3 -21 -11 -22 -23 -2 -58 11 -20 18
-23 45 -18 39 7 76 -16 76 -47 0 -21 18 -32 101 -62 16 -6 59 25 59 43 0 16
22 19 62 9 36 -9 47 -26 48 -72 0 -11 6 -32 14 -47 8 -15 14 -46 13 -69 l-2
-43 -50 1 c-28 1 -74 3 -103 5 -29 3 -55 1 -58 -4 -3 -5 6 -20 21 -34 35 -32
74 -160 67 -220 -3 -35 2 -49 30 -90 49 -69 73 -137 58 -164 -6 -12 -14 -19
-17 -16 -7 7 -33 -13 -33 -25 0 -12 41 -11 78 2 20 7 32 18 34 32 5 35 33 32
58 -7 12 -20 19 -40 15 -46 -3 -5 -26 -10 -50 -10 -69 0 -87 -42 -67 -153 9
-45 32 -76 60 -77 6 0 12 -11 12 -25 0 -33 69 -105 101 -105 13 -1 35 -7 48
-14 14 -8 30 -12 37 -9 6 2 14 -3 17 -11 7 -18 62 -22 72 -6 3 6 17 10 29 10
18 0 32 -15 61 -61 l38 -61 83 7 c85 7 107 -2 64 -25 -25 -13 -16 -33 11 -25
13 5 29 -3 50 -25 l32 -31 -32 -33 c-19 -19 -31 -42 -31 -58 0 -15 -4 -30 -10
-33 -5 -3 -10 -15 -10 -26 0 -10 -9 -28 -21 -40 -29 -29 -46 -11 -52 54 -5 55
-27 144 -40 165 -14 21 -42 13 -75 -21 -36 -37 -52 -81 -52 -144 l0 -42 -36
15 c-21 9 -59 14 -93 13 -42 -2 -67 3 -98 19 -24 12 -43 21 -43 19 0 -2 9 -22
20 -44 16 -34 28 -44 67 -58 27 -9 57 -20 68 -25 23 -9 80 -114 70 -130 -4 -6
5 -22 19 -35 14 -13 26 -29 26 -35 0 -7 9 -23 20 -37 11 -14 22 -41 25 -62 11
-65 22 -83 44 -71 11 5 31 10 45 10 21 0 26 5 26 25 0 25 14 33 25 15 3 -5 16
-10 28 -10 29 0 75 -31 98 -66 l19 -29 0 77 0 77 -30 -10 c-21 -8 -40 -7 -67
1 -52 17 -60 25 -68 66 -4 24 -13 38 -26 41 -19 5 -26 37 -10 47 5 3 0 23 -10
43 -13 25 -16 40 -9 47 7 7 1 17 -17 32 -24 19 -26 24 -14 38 17 21 70 21 78
1 3 -9 -2 -24 -11 -34 -15 -16 -13 -19 34 -39 28 -12 59 -22 70 -22 26 0 25
-18 -1 -47 -21 -22 -21 -23 -3 -29 16 -5 49 -19 77 -32 4 -2 7 19 7 46 0 46
-3 52 -41 83 -23 19 -48 38 -55 42 -27 15 -14 33 41 58 l55 24 0 284 c0 260
-1 283 -17 277 -21 -8 -34 13 -22 35 15 28 2 42 -71 77 -72 34 -78 42 -83 107
-3 41 21 39 50 -4 13 -19 36 -42 51 -51 15 -10 40 -31 54 -49 15 -17 29 -31
32 -31 3 0 6 242 6 538 0 405 -3 541 -12 550 -9 9 -9 12 0 12 7 0 12 14 12 35
0 31 -3 35 -25 35 -39 0 -92 -26 -106 -52 -30 -56 -74 -62 -130 -17 -21 17
-39 35 -39 39 0 5 21 8 48 7 l47 -2 5 50 5 49 50 11 c34 7 53 17 60 31 6 12
16 29 23 37 18 21 4 45 -39 67 -21 11 -44 28 -51 38 -18 25 -113 98 -151 117
-92 45 -159 116 -172 183 -4 23 -20 44 -58 73 -59 47 -65 56 -43 65 28 11 66
-5 112 -48 31 -29 44 -48 44 -68 0 -18 12 -38 38 -62 77 -74 136 -124 168
-143 19 -11 67 -43 106 -71 40 -28 81 -53 91 -57 16 -6 17 43 17 938 l0 945
-2650 0 c-2280 0 -2650 -2 -2650 -14 0 -8 -5 -16 -11 -18 -9 -3 -9 -9 -1 -24
6 -12 8 -31 5 -43 -4 -18 -12 -21 -37 -19 -40 4 -45 30 -12 63 59 59 183 55
-1709 55 -1701 0 -1735 0 -1726 -19 6 -10 13 -43 17 -73 5 -43 3 -58 -11 -71
-37 -38 -85 -4 -85 60 0 18 -4 41 -9 51 -5 9 -12 25 -15 35 -5 16 -46 17 -676
17 l-670 0 0 -230z m7116 139 c3 -6 1 -16 -6 -22 -10 -9 -12 -8 -7 5 3 9 1 19
-6 22 -9 3 -9 5 0 5 6 1 15 -4 19 -10z m-4880 -101 c-3 -13 -6 -31 -6 -40 0
-20 -44 -53 -59 -44 -6 4 -4 24 6 52 12 36 19 45 34 41 11 -3 17 -1 13 4 -3 5
0 9 7 9 7 0 9 -9 5 -22z m-1526 -26 c0 -14 -11 -21 -26 -15 -8 3 -11 9 -8 14
7 11 34 12 34 1z m5350 -4 c0 -4 -6 -8 -14 -8 -8 0 -17 4 -20 8 -2 4 4 8 15 8
10 0 19 -4 19 -8z m50 -8 c0 -11 -7 -20 -15 -20 -8 0 -15 9 -15 20 0 11 7 20
15 20 8 0 15 -9 15 -20z m-5610 -45 c9 -8 24 -15 32 -15 17 0 41 -31 52 -66 5
-16 2 -23 -13 -27 -11 -3 -22 0 -24 7 -2 6 -9 1 -16 -12 -6 -12 -8 -22 -4 -23
61 -6 95 -18 88 -29 -11 -17 -98 -50 -117 -44 -12 3 -18 15 -18 35 0 17 4 28
9 25 5 -4 7 3 4 15 -7 24 -43 63 -67 72 -21 8 -21 45 0 68 18 20 48 17 74 -6z
m753 -98 c3 -8 2 -19 -2 -25 -9 -14 -57 -26 -78 -18 -15 6 -13 10 12 31 31 28
60 32 68 12z m5175 -74 c-10 -13 -13 -12 -19 4 -9 25 0 36 17 22 11 -9 12 -15
2 -26z m1022 -44 c0 -32 -71 -58 -78 -28 -2 10 9 22 30 32 32 16 48 14 48 -4z
m-216 -15 c20 -8 21 -47 2 -63 -15 -13 -42 -6 -49 12 -6 16 10 57 22 57 5 0
16 -3 25 -6z m435 -43 c23 -22 41 -47 41 -57 0 -14 -4 -12 -24 9 -13 14 -34
27 -47 29 -18 2 -25 10 -27 31 -4 37 9 34 57 -12z m279 8 c-2 -6 -8 -10 -13
-10 -5 0 -11 4 -13 10 -2 6 4 11 13 11 9 0 15 -5 13 -11z m42 -29 c10 -6 11
-12 5 -18 -6 -6 -17 -3 -29 9 -14 14 -16 19 -5 19 8 0 21 -5 29 -10z m108
-117 c19 -19 32 -36 30 -39 -8 -8 -82 -13 -104 -8 -31 8 -37 29 -18 65 19 38
45 33 92 -18z m565 -425 c55 -39 64 -68 20 -68 -34 0 -73 36 -73 67 0 29 12
29 53 1z m1101 -20 c1 -7 11 -37 20 -66 16 -49 16 -55 1 -78 -8 -13 -19 -24
-24 -24 -10 0 -34 157 -26 170 9 14 25 12 29 -2z m-168 -124 c3 -27 1 -54 -3
-59 -14 -18 -90 -75 -100 -75 -5 0 -16 -11 -23 -25 -7 -14 -17 -25 -22 -25 -4
0 -8 -7 -8 -15 0 -16 -29 -34 -63 -40 -24 -5 -57 -40 -57 -60 0 -20 79 -113
103 -121 12 -4 37 -20 55 -35 18 -16 37 -29 43 -29 6 0 33 -24 60 -52 45 -48
53 -52 92 -51 23 0 56 4 74 8 26 6 38 2 68 -20 32 -25 41 -27 90 -21 67 8 76
-5 67 -84 l-7 -55 -85 1 -85 2 -19 35 c-20 38 -52 57 -96 57 -21 0 -35 9 -51
31 -22 31 -106 75 -228 119 -49 18 -61 28 -79 63 -12 23 -45 72 -73 110 -49
65 -50 69 -36 91 10 14 30 26 53 31 21 3 49 15 62 26 14 10 41 19 61 19 44 1
80 30 105 85 10 22 25 53 32 68 8 16 14 42 14 58 0 18 4 28 10 24 6 -3 10 0
10 7 0 9 4 8 15 -3 9 -8 18 -37 21 -65z m-615 -23 c0 -3 2 -17 4 -31 4 -29
-15 -79 -30 -81 -27 -3 -51 4 -62 18 -10 12 -8 24 9 57 11 22 25 44 30 47 12
7 48 0 49 -10z m369 -50 c9 -18 5 -51 -7 -51 -20 0 -63 34 -63 50 0 28 55 28
70 1z m-167 -198 c9 -8 -12 -33 -28 -33 -8 0 -11 8 -8 20 5 20 23 26 36 13z
m408 -69 c54 -40 76 -69 58 -79 -27 -17 -101 32 -118 79 -9 21 -6 36 7 36 2 0
26 -16 53 -36z m399 6 c0 -5 -5 -10 -11 -10 -5 0 -7 5 -4 10 3 6 8 10 11 10 2
0 4 -4 4 -10z m-1224 -177 c23 -15 50 -85 40 -102 -9 -14 -43 -14 -52 0 -3 6
-22 9 -43 6 -51 -6 -142 12 -167 35 -11 10 -24 15 -29 11 -4 -5 -6 -2 -3 6 2
8 26 20 54 27 27 6 60 16 74 22 34 14 100 12 126 -5z m590 -281 c25 9 34 7 68
-16 43 -29 73 -33 101 -12 11 8 25 12 32 9 7 -3 13 1 13 8 0 7 16 -3 35 -24
21 -22 32 -43 29 -52 -4 -8 -9 -15 -13 -15 -13 0 -31 24 -31 42 0 13 -8 18
-26 18 -19 0 -28 -8 -40 -35 -13 -33 -16 -34 -37 -23 -12 7 -25 11 -28 11 -4
-1 -15 7 -24 17 -10 11 -30 20 -45 20 -16 0 -30 6 -33 14 -3 8 -16 16 -28 18
-12 2 -25 10 -27 18 -4 12 -2 13 10 3 11 -10 22 -10 44 -1z m362 -358 c12 -4
22 -11 22 -16 0 -14 -53 -5 -58 10 -4 13 2 15 36 6z m12 -189 c0 -15 -6 -25
-14 -25 -24 0 -30 22 -11 37 25 17 25 17 25 -12z m-58 -110 c15 -33 1 -47 -48
-49 -47 -1 -53 15 -17 48 35 33 50 33 65 1z m333 -45 l32 -31 51 20 51 20 6
-30 c9 -39 -16 -79 -50 -79 -13 0 -35 12 -49 27 -20 22 -27 24 -40 14 -28 -23
-76 20 -76 68 0 32 38 27 75 -9z m-239 -57 c35 -38 51 -48 81 -50 32 -3 136
-10 181 -12 6 -1 12 -10 12 -20 0 -37 -143 -123 -207 -124 -7 0 -13 -6 -13
-13 0 -7 -6 -17 -13 -21 -8 -4 -22 -20 -32 -35 -23 -36 -49 -38 -42 -3 3 16
-2 34 -13 48 -18 21 -19 21 -39 3 -26 -23 -54 -14 -49 16 3 20 8 23 48 22 25
-1 60 -5 78 -9 43 -10 42 4 -4 103 -36 76 -54 142 -39 142 5 0 28 -21 51 -47z
m-188 4 c4 -21 -21 -47 -52 -53 -20 -3 -23 0 -23 21 0 45 67 73 75 32z m432
-234 c0 -10 9 -33 21 -52 25 -41 20 -48 -23 -31 -48 19 -58 29 -58 60 0 28 10
38 43 39 10 1 17 -6 17 -16z m-185 -201 c6 -13 16 -20 25 -17 9 3 25 -1 35 -9
16 -12 18 -18 7 -40 -10 -23 -16 -26 -61 -23 -51 3 -91 27 -91 54 0 19 48 65
63 61 7 -3 16 -14 22 -26z m-141 -147 c8 -8 27 -20 42 -25 25 -10 25 -12 11
-28 -27 -29 -79 -27 -106 4 l-24 27 24 18 c29 23 34 23 53 4z m271 2 c23 -17
8 -29 -41 -32 -41 -2 -59 8 -51 29 8 20 66 22 92 3z m84 -16 c7 -5 11 -14 7
-19 -9 -15 -36 -4 -36 14 0 16 9 18 29 5z m116 -1 c3 -6 3 -19 0 -31 -5 -16
-10 -18 -20 -9 -8 7 -18 9 -23 7 -14 -10 -35 10 -29 27 7 18 62 22 72 6z m-85
-86 c0 -8 -16 -22 -36 -31 -42 -20 -69 -9 -69 28 0 20 6 25 40 29 42 6 65 -3
65 -26z"/>
<path d="M4390 10067 c0 -10 -4 -17 -10 -17 -5 0 -10 5 -10 10 0 6 -6 10 -13
10 -8 0 -14 -7 -14 -15 0 -8 4 -12 8 -9 4 2 5 -12 2 -32 -5 -29 -3 -35 8 -31
8 3 33 12 57 19 42 12 51 21 32 33 -6 4 -7 11 -4 17 5 7 2 8 -5 4 -7 -5 -21 0
-32 10 -17 16 -19 16 -19 1z"/>
<path d="M3926 9984 c-22 -8 -47 -20 -55 -27 -23 -19 -71 -35 -106 -35 -16 0
-65 -3 -107 -5 -47 -3 -80 -2 -84 5 -3 5 -18 7 -33 3 -14 -4 -30 -8 -36 -9 -5
-1 -15 -5 -22 -9 -12 -8 -115 -2 -164 9 -23 5 -28 2 -38 -27 -6 -17 -11 -40
-11 -50 0 -11 -6 -19 -14 -19 -19 0 -35 -22 -42 -59 -6 -29 -5 -31 17 -27 13
3 27 5 30 5 4 1 10 17 13 36 5 27 12 35 28 35 12 0 33 10 46 23 19 18 35 22
87 22 34 0 69 -5 76 -12 8 -6 30 -15 49 -20 30 -8 35 -14 38 -42 6 -58 -4 -78
-38 -79 -63 -2 -66 -25 -10 -76 22 -20 46 -36 54 -36 17 0 66 38 66 51 0 13
25 39 37 39 13 0 44 39 59 76 18 44 42 55 98 48 52 -8 76 6 76 40 0 22 36 55
73 69 15 6 16 10 6 29 -14 28 -40 58 -48 57 -3 0 -24 -7 -45 -15z m-100 -131
c-4 -4 -11 -1 -16 7 -16 25 -11 35 7 17 9 -9 13 -20 9 -24z"/>
<path d="M4852 9885 c-2 -39 24 -62 44 -41 14 15 1 52 -24 65 -17 9 -19 6 -20
-24z"/>
<path d="M4335 9890 c-3 -5 1 -10 10 -10 9 0 13 5 10 10 -3 6 -8 10 -10 10 -2
0 -7 -4 -10 -10z"/>
<path d="M2415 9855 c-3 -8 -7 -22 -10 -30 -3 -11 3 -15 25 -15 23 0 35 -9 57
-42 31 -46 63 -59 91 -36 9 8 30 20 46 27 l29 12 -36 33 c-65 60 -62 58 -96
39 -30 -18 -31 -18 -46 5 -18 25 -53 29 -60 7z"/>
<path d="M5747 9855 c-18 -13 -17 -15 13 -42 30 -26 49 -33 93 -34 9 0 17 -4
17 -10 0 -10 30 -12 54 -3 9 3 16 12 16 20 0 16 -16 19 -25 4 -5 -8 -11 -7
-20 0 -8 7 -19 9 -25 5 -6 -4 -10 -3 -9 2 3 20 -2 34 -23 53 -25 23 -65 26
-91 5z"/>
<path d="M2325 9827 c-7 -18 -1 -43 14 -61 18 -22 28 -20 47 9 15 23 15 27 1
43 -19 21 -56 26 -62 9z"/>
<path d="M5413 9823 c-36 -17 -41 -38 -18 -69 8 -10 15 -26 15 -35 0 -9 7 -22
15 -29 22 -18 43 3 37 39 -2 16 1 32 7 35 16 10 14 56 -3 56 -8 0 -16 4 -18
10 -2 5 -17 2 -35 -7z"/>
<path d="M5982 9796 c-22 -26 -20 -38 5 -29 8 3 19 0 23 -7 5 -8 17 -10 35 -6
21 5 25 10 16 19 -6 6 -11 18 -11 27 0 25 -44 23 -68 -4z"/>
<path d="M4710 9785 c0 -7 43 -45 52 -45 16 0 8 30 -11 40 -20 10 -41 13 -41
5z"/>
<path d="M968 9713 c-21 -5 -24 -23 -5 -23 9 0 8 -3 -2 -9 -16 -10 -6 -31 15
-31 8 0 13 4 10 9 -3 5 6 12 20 15 17 5 24 12 22 24 -3 17 -29 24 -60 15z"/>
<path d="M1340 9699 c0 -5 11 -9 25 -9 14 0 25 2 25 4 0 2 -11 6 -25 8 -14 3
-25 1 -25 -3z"/>
<path d="M2311 9703 c-1 -6 -9 -14 -18 -16 -17 -4 -17 -5 0 -6 10 0 16 -5 13
-10 -4 -5 3 -7 15 -4 11 3 16 9 11 12 -5 3 -12 13 -15 21 -3 8 -6 10 -6 3z"/>
<path d="M5175 9620 c-9 -14 23 -62 35 -55 6 4 10 19 10 36 0 22 -5 29 -19 29
-11 0 -23 -5 -26 -10z"/>
<path d="M6240 9574 c0 -14 3 -14 15 -4 8 7 15 14 15 16 0 2 -7 4 -15 4 -8 0
-15 -7 -15 -16z"/>
<path d="M5465 9559 c-4 -5 -4 -20 -1 -33 6 -25 34 -28 60 -7 22 18 20 31 -3
31 -11 0 -23 5 -26 10 -8 13 -22 13 -30 -1z"/>
<path d="M7029 9543 c-8 -9 -9 -14 -2 -10 6 4 14 1 16 -5 3 -7 6 -3 6 10 1 26
-2 27 -20 5z"/>
<path d="M2250 9515 c0 -31 4 -37 38 -51 57 -24 86 -23 90 3 6 40 -14 62 -51
56 -23 -3 -37 0 -46 11 -21 25 -31 19 -31 -19z"/>
<path d="M8020 9344 c0 -3 7 -12 15 -20 13 -14 15 -14 15 1 0 10 5 13 13 9 6
-4 9 -3 4 1 -9 10 -47 17 -47 9z"/>
<path d="M610 9199 c-19 -6 -46 -13 -60 -16 -36 -8 -50 -22 -50 -49 0 -32 14
-37 51 -18 24 12 46 15 86 10 45 -5 56 -3 73 14 11 11 20 24 20 29 0 27 -67
44 -120 30z"/>
<path d="M7390 9194 c0 -25 27 -51 39 -38 5 5 -2 20 -15 34 -23 24 -24 24 -24
4z"/>
<path d="M1820 9160 c-12 -8 -11 -10 7 -10 12 0 25 5 28 10 8 13 -15 13 -35 0z"/>
<path d="M8136 9161 c-3 -4 6 -13 20 -20 33 -15 44 -14 44 3 0 22 -53 36 -64
17z"/>
<path d="M502 9024 c-17 -34 -22 -73 -11 -80 15 -9 27 6 33 41 7 39 -8 66 -22
39z"/>
<path d="M7970 8991 c0 -50 88 -132 126 -117 29 11 16 40 -61 129 -8 9 -26 17
-40 17 -21 0 -25 -5 -25 -29z"/>
<path d="M85 8990 c-11 -5 -35 -9 -52 -9 -26 -1 -33 -5 -33 -21 0 -19 5 -21
72 -18 62 3 73 6 76 22 6 30 -24 43 -63 26z"/>
<path d="M330 8987 c0 -18 38 -57 55 -57 24 0 17 27 -11 49 -31 24 -44 26 -44
8z"/>
<path d="M5210 8915 c0 -3 14 -24 30 -47 30 -41 39 -65 20 -53 -14 9 -58 -39
-66 -72 -3 -15 -45 -87 -93 -160 -81 -125 -88 -132 -119 -132 -19 -1 -32 2
-30 7 42 83 51 113 52 173 1 64 -1 69 -49 139 -61 89 -78 101 -102 77 -17 -17
-17 -20 8 -65 31 -54 25 -91 -13 -94 -13 0 -29 -2 -36 -2 -8 -1 -23 -12 -34
-26 -18 -22 -20 -35 -15 -107 3 -62 10 -89 26 -112 l22 -30 -27 -17 -26 -18
-72 74 c-39 41 -74 74 -78 75 -4 0 -17 16 -30 35 -27 40 -109 91 -116 71 -3
-9 -7 -9 -19 0 -20 17 -31 -2 -27 -44 14 -133 34 -183 91 -222 58 -39 13 -31
-69 11 -38 21 -87 51 -109 69 -25 20 -50 31 -65 29 -13 -1 -26 2 -30 7 -8 14
-34 -17 -34 -42 0 -34 38 -105 70 -133 19 -15 48 -26 84 -30 31 -4 56 -10 56
-14 0 -4 -28 -25 -63 -48 -64 -42 -143 -74 -184 -74 -13 0 -23 -4 -23 -9 0
-11 62 -41 87 -41 23 0 141 25 167 36 13 5 7 -10 -23 -49 -65 -89 -66 -94 -41
-240 8 -52 16 -74 22 -65 5 8 7 4 3 -12 -4 -16 5 -56 24 -108 l30 -82 -23 0
c-49 0 -264 -62 -335 -96 -56 -28 -95 -58 -167 -129 -141 -140 -139 -175 12
-185 69 -4 89 -9 100 -25 31 -42 19 -61 -86 -137 -107 -78 -188 -162 -199
-206 -25 -98 -22 -215 13 -517 14 -121 30 -320 56 -695 6 -85 10 -285 8 -444
l-3 -289 -60 -20 -60 -19 -52 28 c-29 16 -53 32 -53 36 0 4 -13 8 -28 8 -37 0
-70 32 -76 72 -7 49 -18 158 -20 202 -1 39 -2 40 -111 102 -61 35 -115 64
-122 64 -7 0 -20 16 -29 36 -21 45 -34 50 -73 29 -31 -16 -39 -29 -22 -39 4
-3 11 -19 14 -35 7 -33 62 -101 82 -101 7 0 15 -7 19 -15 3 -8 14 -15 25 -15
11 0 22 -9 26 -20 3 -11 13 -20 21 -20 17 0 19 -26 2 -34 -10 -5 -10 -7 -1
-12 7 -3 9 -12 6 -20 -3 -9 0 -14 8 -12 20 5 18 -70 -3 -89 -15 -14 -18 -11
-37 26 -23 44 -86 85 -122 79 -17 -3 -13 -11 30 -63 79 -95 82 -101 66 -173
-7 -34 -9 -62 -6 -62 4 0 20 13 36 30 51 53 126 63 140 19 9 -28 -32 -136 -59
-154 -25 -18 -97 -20 -114 -3 -6 6 -15 8 -19 3 -5 -4 -2 -10 5 -12 6 -3 12
-11 12 -18 0 -16 30 -35 54 -35 23 0 166 120 200 168 l31 44 49 -7 c55 -7 80
-18 113 -48 24 -21 20 -40 -18 -81 -21 -22 -34 -75 -26 -109 3 -12 24 -71 47
-132 28 -72 50 -155 65 -240 27 -153 21 -183 -37 -192 -10 -2 -40 -14 -67 -27
-56 -27 -76 -20 -60 22 23 60 -52 68 -90 10 -23 -36 -26 -34 -11 7 12 33 -3
65 -30 65 -13 0 -22 -9 -26 -25 -3 -14 -8 -25 -10 -25 -14 0 -85 53 -94 69 -5
11 -23 29 -39 40 l-28 20 -32 -28 c-20 -18 -31 -37 -31 -54 0 -15 -5 -27 -12
-27 -6 0 -3 -7 8 -15 18 -14 18 -14 -8 -15 -27 0 -71 -42 -83 -80 -5 -16 -12
-19 -33 -13 -57 14 -108 75 -104 125 2 18 -4 28 -16 32 -27 9 -49 53 -34 68 9
9 13 7 17 -5 4 -9 13 -13 21 -10 8 3 17 -5 23 -20 9 -23 16 -26 83 -29 40 -2
74 -3 76 -2 2 1 -30 22 -70 47 -40 25 -99 63 -132 83 -40 25 -60 33 -65 25 -4
-6 -14 -9 -22 -6 -26 9 -40 -11 -44 -66 -3 -55 -22 -78 -32 -40 -8 32 -26 26
-19 -6 4 -16 20 -41 37 -56 17 -16 28 -31 25 -34 -3 -3 4 -17 14 -31 25 -31
25 -76 2 -122 -12 -25 -23 -34 -37 -32 -11 2 -39 6 -63 9 l-43 6 32 27 33 27
-16 39 c-12 29 -22 38 -36 37 -23 -3 -27 7 -43 132 l-12 91 28 47 c15 26 35
52 44 57 47 27 47 26 4 82 -22 29 -48 68 -59 85 -18 32 -18 33 0 46 14 10 17
21 12 41 -4 17 -1 34 9 49 20 28 21 81 1 74 -47 -18 -100 -27 -108 -19 -5 5
-15 96 -23 203 -27 359 -44 474 -68 466 -9 -3 -14 -92 -19 -336 -3 -182 -11
-378 -17 -434 -15 -148 -23 -299 -22 -401 1 -69 6 -100 22 -133 19 -39 49 -59
49 -32 0 5 5 7 10 4 17 -11 11 -60 -11 -84 -33 -35 -81 -51 -172 -58 -45 -3
-90 -10 -100 -15 -28 -14 -31 -3 -7 20 12 11 42 25 68 32 26 7 50 15 54 17 11
6 -17 53 -30 48 -6 -2 -12 0 -12 5 0 6 -6 10 -14 10 -7 0 -19 7 -26 15 -7 8
-21 15 -30 15 -10 0 -20 5 -22 11 -2 6 -22 13 -43 15 -22 2 -62 8 -90 15 -27
6 -82 12 -122 13 -99 3 -103 8 -87 104 13 77 101 758 131 1009 15 128 12 203
-7 203 -5 0 -14 -8 -19 -18 -15 -27 -105 -384 -146 -577 -19 -93 -59 -273 -87
-400 -41 -178 -52 -250 -53 -317 0 -82 2 -88 28 -116 30 -31 210 -108 227 -97
5 3 22 -1 37 -9 20 -11 23 -15 11 -16 -17 0 -27 -20 -10 -20 23 0 28 -38 17
-121 -12 -88 -5 -161 8 -84 4 22 7 52 7 68 0 15 2 27 4 27 18 0 56 -22 56 -31
0 -7 -3 -10 -6 -6 -3 3 -14 -2 -24 -11 -11 -11 -21 -45 -28 -102 -6 -47 -17
-123 -26 -170 -25 -140 -44 -337 -48 -515 -2 -60 -6 -112 -9 -115 -8 -7 -37
-141 -54 -254 -9 -54 -18 -103 -22 -108 -3 -6 -5 -34 -4 -64 0 -29 -3 -56 -9
-59 -5 -3 -7 -12 -4 -19 3 -7 -4 -40 -14 -72 -31 -93 -36 -125 -21 -135 11 -7
10 -9 -5 -9 -12 0 -16 -5 -12 -16 3 -9 -1 -25 -8 -36 -9 -13 -13 -32 -9 -49 3
-18 1 -29 -6 -29 -7 0 -8 -8 -1 -24 7 -19 4 -28 -11 -42 -15 -13 -19 -27 -16
-48 3 -21 -2 -35 -15 -46 -12 -10 -19 -31 -22 -65 -2 -27 -8 -62 -14 -78 -7
-15 -8 -27 -3 -27 14 0 21 -29 9 -36 -7 -4 -8 -3 -4 4 11 18 -2 14 -23 -7 -14
-14 -16 -22 -8 -30 8 -8 8 -11 -1 -11 -7 0 -12 -14 -12 -34 0 -18 -6 -39 -14
-45 -8 -7 -17 -27 -20 -46 -4 -19 -12 -40 -19 -48 -7 -7 -16 -21 -22 -31 -5
-10 -13 -16 -17 -14 -3 2 -17 -7 -30 -19 -22 -21 -24 -21 -24 -3 0 10 4 16 10
13 5 -4 6 5 3 19 -5 17 -2 30 8 38 8 7 15 24 15 39 0 15 5 32 12 39 9 9 9 12
0 12 -7 0 -4 13 8 36 11 19 18 39 15 45 -4 5 -3 14 1 20 4 7 8 27 10 46 4 41
12 55 26 47 7 -4 8 -2 4 5 -10 16 3 53 16 45 8 -5 9 -1 3 12 -7 18 -9 31 -15
99 -3 35 9 105 21 120 4 6 10 22 12 35 3 14 14 72 26 130 11 58 22 123 25 145
7 50 13 82 31 159 8 34 15 73 15 89 0 15 4 27 8 27 4 0 8 8 9 18 1 25 8 64 33
180 23 109 23 153 0 55 -9 -36 -15 -50 -18 -38 -2 11 -18 32 -36 46 -253 215
-309 260 -314 255 -3 -4 0 -12 6 -18 7 -7 12 -21 12 -33 0 -11 7 -31 16 -43 9
-13 14 -32 11 -43 -3 -12 0 -22 8 -26 8 -2 17 -13 20 -24 4 -10 13 -19 21 -19
8 0 14 -8 14 -18 0 -15 38 -53 80 -82 4 -3 10 -14 12 -25 2 -11 10 -19 16 -17
7 1 12 -4 12 -11 0 -7 9 -19 20 -27 11 -8 20 -20 20 -27 0 -7 5 -13 10 -13 6
0 10 -8 8 -17 -2 -10 3 -17 10 -15 18 3 15 -19 -20 -125 -30 -93 -43 -203 -25
-203 10 0 -1 -41 -15 -55 -7 -7 -9 -3 -5 12 2 12 0 24 -7 26 -6 2 -16 -19 -22
-52 -7 -31 -14 -63 -16 -71 -1 -8 2 -14 9 -13 7 2 10 -4 7 -12 -4 -8 -11 -12
-16 -9 -6 4 -8 -2 -3 -15 5 -16 3 -20 -9 -15 -17 7 -22 -11 -6 -21 6 -3 10
-11 10 -17 0 -7 -5 -7 -14 1 -11 9 -15 7 -19 -9 -3 -11 -1 -23 4 -26 5 -3 9
-10 9 -16 0 -7 -4 -7 -12 0 -10 8 -13 -8 -15 -74 -2 -86 -18 -190 -32 -198 -4
-3 -5 11 -3 30 3 21 0 34 -7 34 -6 0 -11 5 -11 11 0 5 5 7 10 4 6 -3 10 -2 10
4 0 5 -4 12 -9 15 -13 9 -22 -22 -15 -51 6 -20 4 -24 -7 -18 -11 6 -11 5 -3
-4 18 -20 5 -61 -20 -61 -17 0 -18 -2 -6 -10 10 -7 11 -13 5 -17 -6 -5 -12
-19 -13 -33 0 -13 -9 -30 -18 -37 -10 -7 -13 -13 -8 -13 6 0 11 -7 11 -15 0
-18 -13 -20 -21 -2 -3 6 -2 -1 1 -17 5 -24 3 -28 -11 -23 -9 4 -16 2 -16 -2 0
-5 5 -11 11 -13 9 -3 9 -9 0 -26 -7 -14 -17 -19 -29 -16 -12 4 -13 3 -4 -3 15
-11 5 -46 -10 -37 -14 9 -29 -17 -22 -40 5 -14 2 -18 -9 -13 -11 4 -24 -9 -46
-49 -17 -30 -36 -54 -41 -54 -6 0 -10 -7 -10 -15 0 -8 7 -15 15 -15 9 0 15 -9
15 -22 0 -41 38 -102 79 -127 33 -21 38 -28 30 -43 -6 -10 -7 -24 -3 -31 4 -6
-2 -4 -12 7 -14 13 -15 20 -6 23 20 8 14 20 -19 33 -40 17 -77 67 -81 110 l-3
35 -18 -32 c-9 -18 -17 -38 -16 -45 0 -7 5 -2 10 11 5 13 12 22 14 19 3 -3 1
-17 -5 -32 -24 -63 -3 -95 85 -132 33 -14 47 -23 30 -19 -16 3 -55 18 -85 33
-44 22 -56 33 -61 57 l-7 30 -1 -33 c-1 -25 8 -42 38 -75 39 -42 40 -45 35
-98 -5 -49 -3 -59 25 -100 18 -26 57 -64 89 -85 31 -20 69 -45 83 -55 34 -23
93 -40 154 -45 28 -2 88 -8 135 -14 77 -9 95 -8 188 15 57 14 111 25 120 25
22 0 149 62 179 87 43 36 60 83 58 163 -1 41 -8 95 -17 120 -8 25 -20 61 -26
80 -14 51 -7 238 12 294 9 26 16 53 16 61 0 7 9 17 20 20 15 5 18 11 11 23 -4
9 -6 24 -4 32 10 35 63 137 80 155 11 11 20 25 21 30 1 6 7 10 12 10 6 0 15 6
19 14 5 7 13 11 19 7 5 -3 15 1 22 10 7 8 19 13 27 10 7 -3 37 -1 65 4 48 10
54 9 69 -11 16 -21 17 -21 27 -3 11 18 12 18 27 -4 9 -12 20 -20 25 -17 4 3
11 -1 14 -7 5 -10 7 -10 12 0 5 10 10 8 21 -7 8 -12 25 -21 37 -21 13 0 29 -7
36 -15 7 -9 21 -13 30 -10 9 3 23 -1 30 -10 7 -8 21 -15 32 -15 11 0 26 -7 35
-15 10 -10 30 -15 55 -13 32 2 44 -3 60 -22 10 -13 29 -24 41 -25 56 -4 98
-19 108 -37 8 -14 17 -18 34 -14 14 4 27 0 35 -10 7 -8 19 -13 26 -10 7 3 32
-6 56 -19 93 -52 187 -83 209 -70 5 4 16 -1 24 -9 15 -14 75 -36 102 -36 6 0
14 -8 18 -19 5 -15 16 -18 78 -18 60 0 83 -5 139 -31 45 -22 82 -32 113 -32
25 0 59 -7 75 -15 16 -8 36 -12 44 -9 9 4 23 1 31 -6 8 -6 23 -9 33 -6 14 5
21 1 25 -14 6 -23 47 -28 47 -6 0 11 9 13 38 9 20 -3 41 -10 47 -14 5 -5 24
-9 42 -9 18 0 33 -4 33 -8 0 -4 19 -6 43 -5 23 1 63 -4 88 -13 25 -8 53 -12
63 -8 9 4 24 0 34 -9 11 -10 40 -17 77 -18 56 -2 115 -22 115 -38 0 -4 24 -7
53 -6 28 1 62 -3 74 -8 16 -7 27 -6 38 3 12 10 18 10 30 0 18 -15 144 -20 163
-6 8 6 21 4 36 -4 13 -6 33 -9 45 -5 12 4 28 2 35 -4 7 -6 29 -11 47 -11 47 1
108 -10 115 -21 3 -5 16 -9 29 -9 13 0 44 -9 69 -20 25 -10 52 -17 59 -14 7 2
29 -2 48 -10 19 -8 41 -11 48 -7 7 5 31 5 54 0 23 -4 42 -7 43 -6 0 1 5 20 10
42 l9 40 80 -2 c44 -1 85 3 91 8 8 6 14 6 18 0 3 -5 15 -7 26 -4 12 3 28 -2
38 -11 32 -28 77 -31 112 -6 17 12 38 19 46 16 8 -3 26 1 39 10 17 11 29 13
43 5 13 -7 22 -7 30 1 5 5 16 7 23 2 23 -14 67 -14 72 0 4 11 15 12 52 4 33
-7 50 -7 60 2 12 10 89 22 140 21 11 0 27 7 36 15 12 11 25 13 41 8 34 -11 62
-13 73 -4 12 9 87 6 103 -4 6 -3 14 -1 17 4 4 6 19 10 35 8 15 -1 34 2 41 8 8
6 30 17 49 24 19 8 38 19 42 24 4 6 29 11 55 11 26 1 56 5 66 9 11 5 34 4 55
-2 22 -7 40 -8 45 -3 5 5 15 7 22 5 7 -3 22 8 34 24 20 28 76 49 86 32 3 -4
16 -8 29 -8 18 0 26 7 28 21 2 16 11 22 33 23 17 1 49 8 71 16 23 8 56 13 73
12 21 -3 42 3 60 17 22 16 38 20 85 16 54 -4 58 -2 78 25 15 22 27 29 44 25
13 -2 24 0 24 4 0 5 11 9 24 9 14 0 27 4 30 9 3 5 26 12 51 15 25 4 51 14 59
22 8 8 19 14 25 14 6 0 11 5 11 10 0 6 9 10 19 10 11 0 22 6 25 13 3 8 12 3
26 -16 12 -15 29 -27 38 -27 8 0 23 -7 32 -15 10 -9 24 -12 42 -7 30 8 83 68
68 77 -5 3 -10 11 -10 16 0 6 5 7 10 4 6 -3 10 -1 10 5 0 6 10 4 24 -5 13 -9
31 -13 42 -9 19 7 19 7 0 -14 -11 -12 -14 -22 -9 -22 6 0 19 -17 29 -37 15
-31 19 -34 22 -18 2 13 18 27 40 37 20 9 46 23 57 31 20 15 20 15 -1 39 -20
21 -21 28 -11 81 9 44 15 57 29 57 10 0 18 5 18 11 0 7 14 8 40 4 37 -6 40 -5
40 15 0 17 4 21 20 17 11 -3 23 -1 26 4 3 5 10 9 16 9 6 0 5 -7 -3 -17 -12
-16 -12 -17 2 -5 9 7 24 10 33 6 9 -3 16 -1 16 5 0 6 -4 11 -10 11 -20 0 -9
16 21 29 44 19 79 58 79 87 0 24 1 24 30 9 18 -9 30 -11 30 -5 0 6 10 8 25 4
16 -4 25 -2 25 6 0 7 7 10 15 6 8 -3 19 3 25 12 9 16 11 16 24 -1 15 -20 30
-23 23 -4 -2 6 9 18 25 24 18 8 27 17 22 24 -4 8 -9 7 -16 -2 -12 -17 -8 -4
17 58 15 39 18 41 38 30 12 -7 24 -14 27 -17 3 -3 11 -5 18 -6 44 -4 45 -4 33
-18 -9 -11 -9 -16 0 -22 7 -4 17 0 24 10 11 14 14 15 25 1 7 -8 18 -15 24 -15
7 0 6 3 -2 8 -26 17 24 100 53 88 8 -3 15 -1 15 4 0 6 -4 10 -10 10 -5 0 -10
7 -10 15 0 24 18 17 37 -15 32 -55 59 -48 112 28 13 18 34 37 46 42 16 6 25
19 27 37 2 23 8 28 31 29 61 2 105 50 83 89 -15 27 -36 44 -68 56 -16 6 -28
16 -28 22 0 6 -7 2 -15 -9 -8 -10 -15 -17 -15 -14 -8 37 -7 40 16 40 14 0 28
9 35 22 8 14 14 18 17 10 2 -6 8 -9 13 -6 13 8 -9 34 -27 34 -8 0 -14 9 -14
20 0 24 13 26 33 5 8 -7 26 -17 41 -21 30 -7 35 -38 9 -52 -9 -6 -14 -16 -10
-26 5 -12 17 -15 53 -12 25 2 41 0 34 -4 -7 -4 -9 -13 -6 -19 10 -15 36 -14
36 2 0 7 3 8 8 2 12 -17 58 -12 53 5 -2 8 -4 22 -5 30 -2 23 -35 80 -46 80 -5
0 -7 7 -4 15 4 8 1 15 -5 15 -6 0 -10 15 -9 34 1 24 5 33 15 29 7 -3 13 0 13
6 0 6 -6 11 -12 11 -9 0 -8 4 2 11 11 8 12 12 3 16 -15 6 -17 33 -3 33 21 0
25 -2 22 -13 -2 -6 8 1 22 16 30 32 50 36 41 6 -5 -15 -2 -22 13 -26 12 -3 23
-11 26 -19 3 -8 15 -14 26 -14 11 0 23 -7 27 -16 3 -8 12 -13 20 -10 8 3 11 1
8 -4 -4 -6 6 -10 21 -10 22 0 25 2 14 15 -7 8 -21 15 -32 15 -17 0 -18 3 -8
15 7 8 19 15 26 15 8 0 14 3 14 8 0 11 -43 37 -57 34 -7 -2 -13 2 -13 9 0 7
-12 10 -31 7 -20 -3 -33 0 -36 9 -3 7 -11 13 -19 13 -21 0 -17 14 12 44 32 31
35 32 65 5 19 -16 20 -19 6 -15 -15 5 -17 2 -11 -17 9 -28 26 -40 36 -24 5 8
8 8 8 1 0 -6 14 -11 30 -11 l30 0 0 565 c-1 475 -3 569 -15 593 -19 35 -19 40
-1 33 12 -5 15 29 16 226 1 225 0 231 -19 221 -10 -6 -21 -17 -25 -26 -3 -8
-13 -15 -22 -15 -13 0 -15 6 -10 33 4 17 7 44 7 59 0 15 4 30 9 33 14 9 12 49
-2 63 -17 17 -39 15 -32 -3 4 -8 1 -22 -6 -30 -10 -12 -10 -18 1 -31 11 -14
11 -18 -4 -29 -9 -7 -17 -20 -17 -29 0 -18 -25 -22 -35 -5 -4 5 1 19 10 29 17
19 17 20 0 26 -9 4 -20 2 -25 -6 -5 -8 -26 6 -70 48 -61 59 -62 60 -81 41 -15
-15 -33 -19 -96 -19 -43 0 -88 0 -101 -1 -45 -2 -73 12 -88 44 -35 74 -45 87
-69 87 -21 0 -25 7 -35 56 -7 34 -9 75 -4 103 12 75 13 101 3 101 -5 0 -14
-11 -18 -24 -12 -31 -40 -40 -61 -21 -9 8 -29 15 -45 15 l-29 0 33 -34 c21
-22 31 -41 28 -50 -9 -24 -31 -19 -67 14 -18 17 -40 30 -50 30 -10 0 -23 7
-30 15 -7 8 -17 15 -23 15 -6 0 -33 21 -60 48 -56 53 -54 49 22 -63 104 -151
193 -360 227 -527 10 -51 18 -151 20 -263 3 -152 1 -196 -17 -285 -36 -184
-127 -378 -267 -567 -76 -101 -190 -223 -209 -223 -9 0 -46 -29 -84 -64 -61
-58 -98 -89 -218 -178 -221 -165 -621 -364 -976 -485 -543 -185 -1226 -313
-1878 -353 -508 -31 -1398 12 -1862 91 -435 73 -712 145 -1170 301 -276 94
-670 290 -711 354 -15 21 -15 34 -5 97 7 40 9 80 6 89 -5 13 -2 15 13 11 22
-5 39 20 90 135 38 87 39 92 8 92 -33 0 -79 -41 -104 -91 l-20 -40 -7 94 c-16
210 15 794 35 677 10 -56 60 -172 91 -212 16 -20 84 -71 152 -113 67 -43 136
-92 152 -111 52 -55 101 -69 250 -69 109 0 148 5 245 29 l115 28 20 -27 c91
-125 184 -231 231 -262 30 -20 54 -37 54 -38 0 -6 -46 8 -60 19 -8 6 -4 -2 10
-18 14 -16 41 -35 60 -43 96 -41 288 -34 443 18 115 37 143 37 190 -2 20 -17
37 -28 37 -26 0 18 -36 87 -58 109 -30 33 -24 43 26 43 75 0 142 -80 142 -170
0 -43 -2 -46 -30 -51 -23 -5 -30 -12 -30 -30 0 -44 40 -132 73 -159 66 -55
204 -148 261 -177 126 -64 358 -122 538 -134 230 -15 485 73 687 237 57 46
121 96 142 110 29 20 35 29 27 37 -7 7 -9 12 -5 12 12 0 81 -30 87 -38 8 -12
62 -33 55 -22 -8 13 25 13 45 0 12 -8 10 -10 -10 -11 -21 0 -18 -3 15 -15 86
-32 176 -45 349 -51 200 -6 302 4 431 44 151 47 260 117 313 200 39 61 49 118
32 190 -17 70 -9 87 84 165 78 66 83 67 216 43 347 -62 838 -62 985 -1 19 8
40 28 49 44 13 24 23 30 63 35 112 14 243 78 262 129 18 50 -1 65 -119 92 -36
8 -101 26 -145 39 -44 14 -120 32 -170 42 -49 10 -92 19 -94 21 -2 2 4 13 14
24 10 11 15 23 12 27 -4 3 -2 12 3 18 6 7 13 36 16 64 4 41 1 53 -11 58 -13 4
-7 15 29 50 54 52 61 91 21 117 -30 20 -69 21 -84 2 -6 -7 -33 -19 -59 -26
-26 -7 -52 -19 -58 -27 -9 -11 -13 -4 -18 31 -4 25 -11 48 -17 51 -13 9 -11
22 4 22 6 0 29 10 49 22 39 24 68 69 68 107 0 28 16 40 24 18 3 -8 11 -14 18
-13 27 3 61 -1 55 -8 -12 -11 14 -33 39 -33 12 0 26 -5 29 -10 4 -6 12 -7 18
-3 6 4 24 6 40 5 18 -2 27 2 25 10 -1 7 10 31 24 53 29 43 32 86 10 153 -9 26
-8 32 3 30 8 -2 14 2 15 7 2 17 32 45 42 39 5 -3 12 3 15 15 6 24 14 26 31 9
9 -9 12 -8 12 4 0 24 -11 48 -22 48 -5 0 -22 9 -37 19 -44 31 -138 81 -153 81
-8 0 -25 11 -38 25 -13 14 -33 25 -44 25 -40 0 -164 59 -204 97 -7 7 -22 13
-31 13 -10 0 -24 7 -31 15 -7 9 -18 14 -24 12 -6 -2 -31 6 -56 19 -24 12 -48
20 -52 18 -4 -3 -16 0 -27 5 -10 6 -37 13 -60 16 -32 4 -41 1 -41 -10 0 -8 -6
-12 -14 -9 -8 3 -12 12 -9 21 5 12 3 13 -13 3 -16 -10 -52 -4 -204 34 -102 25
-191 46 -198 46 -9 0 -12 -10 -10 -27 2 -20 9 -29 25 -31 28 -4 53 -38 53 -73
0 -20 7 -30 30 -39 47 -19 39 -45 -25 -81 -30 -17 -55 -33 -55 -35 0 -3 21
-14 47 -25 34 -14 43 -23 35 -31 -8 -8 -22 -5 -53 10 -38 19 -44 20 -70 6 -33
-17 -38 -34 -10 -34 10 0 29 -8 42 -18 13 -10 32 -22 42 -25 13 -5 17 -15 15
-34 -2 -21 -14 -32 -52 -51 -28 -14 -69 -27 -92 -30 -35 -4 -44 -1 -58 19 -21
30 -21 73 0 105 21 31 12 41 -18 20 -57 -40 -79 -8 -84 129 -2 50 -6 108 -9
130 -5 34 -1 49 28 97 19 31 32 59 29 62 -3 3 -17 6 -32 6 -72 0 -113 150 -53
195 18 14 62 20 116 17 25 -2 27 1 27 37 0 36 1 38 28 33 24 -5 26 -4 13 11
-7 10 -47 38 -87 63 -41 25 -74 48 -74 51 0 2 7 17 15 34 17 32 14 111 -6 161
-6 16 -9 37 -6 48 3 11 1 18 -4 14 -5 -3 -9 6 -9 20 0 14 5 26 10 26 6 0 10
13 10 29 0 17 -4 33 -10 36 -5 3 -10 18 -11 33 0 15 -3 21 -6 14 -10 -25 -22
-1 -12 25 5 15 7 33 4 41 -3 7 10 32 29 55 36 46 50 83 34 94 -7 4 -8 1 -3 -7
5 -8 3 -11 -6 -8 -8 3 -15 17 -16 31 -1 15 -12 42 -25 59 -55 77 -58 94 -27
163 11 26 19 56 16 66 -3 10 -1 17 4 13 15 -9 10 26 -6 43 -18 17 -40 5 -50
-28 -4 -10 -13 -19 -21 -19 -27 0 -14 33 32 75 41 38 45 47 42 81 l-3 39 -52
5 c-28 3 -55 8 -58 12 -14 13 8 30 31 24 37 -10 74 31 74 84 0 34 -4 43 -20
47 -16 4 -18 8 -9 19 9 11 6 14 -14 14 -34 0 -74 19 -82 38 -8 22 18 46 79 72
71 30 80 56 38 118 -7 10 -28 10 -108 -3 -127 -20 -188 -40 -227 -75 -39 -34
-258 -162 -265 -155 -3 3 -12 -1 -20 -8 -30 -24 -5 61 34 121 42 62 42 67 19
201 -19 111 -46 163 -123 237 l-63 63 15 30 c43 83 -5 166 -128 219 -38 17
-176 48 -249 57 l-59 7 41 24 c22 14 43 33 46 44 8 24 -30 77 -60 84 -134 29
-311 57 -331 53 -25 -4 -26 -3 -21 27 3 17 15 83 26 146 25 137 18 210 -30
307 -58 120 -208 228 -351 255 -73 13 -84 22 -40 31 55 11 94 49 140 137 38
73 43 91 39 128 -5 45 -32 92 -57 100 -9 3 -11 -3 -6 -24 20 -86 19 -111 -9
-172 -15 -34 -35 -68 -45 -77 -14 -13 -12 1 13 74 29 86 30 93 18 148 -11 47
-22 66 -57 101 -40 37 -64 52 -64 37z m-63 -527 c18 -18 33 -38 33 -45 0 -24
-18 -14 -39 22 -11 19 -25 35 -31 35 -5 0 -10 5 -10 10 0 17 13 11 47 -22z
m-78 -34 c32 -54 22 -75 -16 -35 -12 12 -28 18 -47 16 -16 -2 -42 3 -57 11
-48 24 -94 7 -86 -32 6 -33 -11 -41 -36 -16 -19 19 -19 24 -7 47 9 18 16 22
21 13 6 -9 12 -8 26 4 20 18 40 22 125 25 55 2 57 1 77 -33z m-117 -48 c12
-17 26 -32 30 -34 15 -7 8 -24 -7 -18 -18 6 -20 -5 -3 -22 9 -9 8 -16 -5 -30
-9 -10 -17 -24 -17 -30 0 -7 -4 -12 -10 -12 -5 0 -9 29 -8 66 0 37 -4 70 -11
77 -8 8 -11 5 -11 -12 0 -29 -18 -63 -30 -56 -9 5 -11 91 -4 106 8 16 57 -7
76 -35z m343 24 c3 0 3 5 0 10 -3 6 -1 10 4 10 13 0 13 -3 5 -24 -5 -12 -10
-13 -30 -4 -13 6 -24 15 -24 20 0 5 9 4 19 -2 11 -5 22 -10 26 -10z m-760 -19
c-6 -11 -64 -25 -72 -18 -3 3 10 10 28 16 45 12 51 13 44 2z m122 -13 c-3 -8
-6 -5 -6 6 -1 11 2 17 5 13 3 -3 4 -12 1 -19z m52 -2 c14 -17 0 -29 -23 -20
-17 7 -20 16 -9 27 10 11 19 8 32 -7z m470 0 c8 -10 8 -16 -3 -25 -10 -9 -16
-8 -26 3 -12 15 -6 36 9 36 5 0 14 -6 20 -14z m-742 -12 c-3 -3 -12 -4 -19 -1
-8 3 -5 6 6 6 11 1 17 -2 13 -5z m328 -24 c3 -5 1 -10 -4 -10 -6 0 -11 5 -11
10 0 6 2 10 4 10 3 0 8 -4 11 -10z m-105 -21 c0 -5 -4 -9 -10 -9 -5 0 -10 7
-10 16 0 8 5 12 10 9 6 -3 10 -10 10 -16z m420 -14 c0 -8 -2 -15 -4 -15 -2 0
-6 7 -10 15 -3 8 -1 15 4 15 6 0 10 -7 10 -15z m184 0 c-4 -8 -10 -12 -15 -9
-14 8 -10 24 6 24 9 0 12 -6 9 -15z m136 -6 c0 -6 -4 -7 -10 -4 -5 3 -10 11
-10 16 0 6 5 7 10 4 6 -3 10 -11 10 -16z m-840 -14 c0 -8 -4 -15 -10 -15 -5 0
-10 7 -10 15 0 8 5 15 10 15 6 0 10 -7 10 -15z m70 -19 c0 -44 -16 -49 -38
-12 l-21 35 30 -1 c23 -1 29 -6 29 -22z m107 -16 c3 -11 10 -20 15 -20 16 0
50 -89 43 -113 -15 -52 -28 -77 -42 -77 -11 0 -13 7 -8 30 4 18 3 29 -3 28 -5
-2 -19 8 -30 22 -18 21 -23 23 -32 10 -5 -8 -10 -34 -10 -57 0 -33 4 -43 16
-43 14 0 14 -1 0 -16 -9 -8 -16 -20 -16 -26 0 -6 -9 -8 -20 -5 -14 3 -24 -1
-31 -15 -10 -19 -12 -19 -27 -4 -16 16 -15 19 7 37 22 18 23 22 11 44 -8 15
-20 23 -31 22 -29 -5 -32 -13 -15 -39 9 -14 13 -28 9 -31 -10 -11 -53 -8 -53
3 0 6 -5 10 -11 10 -6 0 -9 -7 -5 -15 3 -8 -6 -26 -19 -41 -21 -23 -27 -25
-41 -13 -11 9 -14 22 -10 41 3 15 1 28 -4 28 -5 0 -14 10 -21 21 -9 17 -8 25
4 36 13 14 16 12 22 -16 7 -33 25 -52 25 -26 0 8 7 18 15 21 11 5 13 10 5 19
-12 14 -2 77 14 87 20 14 26 8 20 -18 -7 -26 -7 -26 19 -10 18 12 23 23 19 38
-4 15 -2 19 8 13 7 -4 15 -3 19 3 4 6 17 9 29 5 23 -6 25 -15 24 -88 -1 -37 0
-38 7 -10 4 17 15 46 23 65 9 19 21 54 27 78 13 45 39 57 48 22z m111 -8 c2
-14 -2 -22 -12 -22 -19 0 -29 17 -22 36 8 22 30 12 34 -14z m232 -7 c0 -26 -3
-33 -15 -29 -15 6 -21 45 -8 57 15 15 23 5 23 -28z m113 -28 c-3 -5 -9 -3 -14
4 -4 7 -5 17 -2 22 3 5 9 3 14 -4 4 -7 5 -17 2 -22z m147 3 c0 -5 -5 -10 -11
-10 -5 0 -7 5 -4 10 3 6 8 10 11 10 2 0 4 -4 4 -10z m-450 -10 c0 -5 -4 -10
-10 -10 -5 0 -10 5 -10 10 0 6 5 10 10 10 6 0 10 -4 10 -10z m-410 -31 c0 -5
-4 -9 -10 -9 -5 0 -10 7 -10 16 0 8 5 12 10 9 6 -3 10 -10 10 -16z m408 -17
c3 -9 -2 -13 -14 -10 -9 1 -19 9 -22 16 -3 9 2 13 14 10 9 -1 19 -9 22 -16z
m-458 -29 c0 -10 -6 -13 -15 -9 -12 4 -15 0 -13 -17 2 -12 -1 -23 -7 -24 -10
-2 -10 39 -1 64 7 17 36 5 36 -14z m570 -27 c0 -8 -4 -17 -9 -21 -12 -7 -24
12 -16 25 9 15 25 12 25 -4z m140 0 c0 -3 -4 -8 -10 -11 -5 -3 -10 -1 -10 4 0
6 5 11 10 11 6 0 10 -2 10 -4z m-420 -16 c0 -5 -2 -10 -4 -10 -3 0 -8 5 -11
10 -3 6 -1 10 4 10 6 0 11 -4 11 -10z m145 -40 c0 -8 -8 -16 -17 -18 -13 -2
-18 3 -18 18 0 15 5 20 18 18 9 -2 17 -10 17 -18z m220 1 c3 -5 1 -12 -5 -16
-5 -3 -10 1 -10 9 0 18 6 21 15 7z m-289 -108 c-10 -10 -19 5 -10 18 6 11 8
11 12 0 2 -7 1 -15 -2 -18z m254 7 c0 -5 -5 -10 -11 -10 -5 0 -7 5 -4 10 3 6
8 10 11 10 2 0 4 -4 4 -10z m-640 -43 c0 -20 -25 1 -28 24 -2 23 -2 23 13 5 8
-11 15 -24 15 -29z m510 33 c0 -5 -4 -10 -10 -10 -5 0 -10 5 -10 10 0 6 5 10
10 10 6 0 10 -4 10 -10z m-350 -39 c0 -5 -6 -14 -14 -20 -11 -9 -16 -9 -21 0
-4 6 -1 15 6 20 18 11 29 11 29 0z m83 -4 c3 -8 2 -19 -3 -26 -5 -9 -9 -4 -12
13 -5 27 6 36 15 13z m125 -19 c-6 -18 -28 -21 -28 -4 0 9 7 16 16 16 9 0 14
-5 12 -12z m92 -28 c0 -5 -5 -10 -11 -10 -5 0 -7 5 -4 10 3 6 8 10 11 10 2 0
4 -4 4 -10z m-400 -61 c0 -5 -4 -9 -10 -9 -5 0 -10 7 -10 16 0 8 5 12 10 9 6
-3 10 -10 10 -16z m-62 -51 c6 -16 10 -28 7 -28 -6 0 -45 76 -45 87 0 11 24
-27 38 -59z m252 32 c-19 -12 -30 -12 -30 -1 0 10 31 20 40 14 2 -2 -2 -8 -10
-13z m180 10 c0 -5 -4 -10 -10 -10 -5 0 -10 5 -10 10 0 6 5 10 10 10 6 0 10
-4 10 -10z m384 -16 c21 -8 20 -31 -1 -31 -24 0 -47 24 -30 30 6 3 13 6 14 6
1 1 8 -2 17 -5z m-54 -30 c0 -10 -6 -13 -18 -10 -11 4 -34 -4 -56 -19 -38 -26
-56 -31 -56 -17 0 9 98 60 118 61 6 1 12 -6 12 -15z m330 -4 c0 -5 -2 -10 -4
-10 -3 0 -8 5 -11 10 -3 6 -1 10 4 10 6 0 11 -4 11 -10z m-202 -12 c7 -7 12
-21 12 -32 0 -19 -1 -18 -22 4 l-22 23 -9 -21 c-12 -27 -27 -28 -27 -2 0 32
45 51 68 28z m249 -40 c-3 -8 -6 -5 -6 6 -1 11 2 17 5 13 3 -3 4 -12 1 -19z
m-907 2 c0 -5 -4 -10 -10 -10 -5 0 -10 5 -10 10 0 6 5 10 10 10 6 0 10 -4 10
-10z m110 -6 c0 -8 -4 -12 -10 -9 -5 3 -10 10 -10 16 0 5 5 9 10 9 6 0 10 -7
10 -16z m404 -5 c29 -14 40 -37 26 -54 -6 -7 -9 -21 -8 -31 4 -24 -14 -30 -27
-9 -7 11 -6 18 5 25 19 12 4 40 -28 55 -12 5 -22 13 -22 17 0 11 25 10 54 -3z
m-88 -24 c4 -8 12 -15 19 -15 20 0 27 -43 10 -56 -19 -14 -19 -40 0 -48 20 -7
19 -35 -1 -43 -18 -7 -58 -92 -68 -145 -4 -21 -19 -52 -33 -69 l-27 -32 25 8
c13 4 27 13 31 19 5 8 11 7 20 -2 20 -20 47 -15 41 8 -4 15 -9 18 -18 10 -18
-15 -27 2 -19 35 6 25 37 35 49 15 10 -16 37 -12 51 7 11 16 13 16 25 -9 14
-31 29 -28 29 6 0 25 22 51 33 39 14 -13 6 -32 -24 -64 -29 -31 -32 -32 -44
-16 -22 31 -29 -1 -9 -41 11 -21 20 -38 20 -40 5 -10 63 62 68 85 10 40 30 83
38 83 10 0 10 -6 -5 -60 -12 -45 -19 -57 -65 -107 -18 -20 -22 -33 -18 -73 3
-36 1 -50 -10 -54 -9 -4 -14 2 -14 17 l-1 22 -20 -24 c-18 -23 -21 -23 -36 -8
-15 15 -15 18 10 41 30 27 31 34 17 56 -8 13 -10 13 -10 -1 0 -9 -9 -19 -20
-22 -14 -4 -20 -14 -20 -34 0 -22 -5 -29 -20 -29 -24 0 -26 15 -5 42 20 27 19
31 -17 50 -21 11 -63 18 -113 20 -63 2 -82 7 -93 21 -16 22 -12 85 7 91 9 3
11 -2 6 -17 -8 -26 10 -51 35 -51 13 0 17 6 13 20 -3 11 -10 20 -15 20 -6 0
-8 14 -4 35 7 36 -1 44 -22 23 -14 -14 -23 -7 -25 21 -1 13 -6 20 -14 17 -7
-3 -15 -1 -18 4 -8 14 13 50 30 50 7 0 16 6 18 13 3 7 6 5 6 -5 1 -28 21 -21
21 8 0 14 6 31 13 38 17 18 77 9 77 -11 0 -8 -6 -13 -12 -10 -51 21 -50 21
-46 -4 3 -21 8 -24 38 -21 19 2 41 9 48 14 8 7 16 7 26 -1 11 -9 17 -8 30 4
19 20 11 44 -13 38 -11 -3 -27 4 -38 16 -16 18 -25 20 -45 12 -31 -12 -59 2
-40 21 6 6 12 8 12 4 0 -5 9 2 21 15 14 17 22 20 25 12 8 -18 27 -16 21 1 -7
18 29 66 49 66 8 0 17 -7 20 -15z m231 -12 c4 -10 13 -24 20 -31 15 -16 18
-46 3 -37 -5 3 -10 13 -10 20 0 8 -9 19 -20 25 -11 6 -20 17 -20 25 0 21 19
19 27 -2z m323 -3 c0 -5 -7 -10 -16 -10 -8 0 -12 5 -9 10 3 6 10 10 16 10 5 0
9 -4 9 -10z m-204 -47 c-12 -12 -29 15 -21 34 7 17 8 16 18 -5 5 -12 7 -25 3
-29z m-172 10 c4 -9 2 -20 -5 -23 -6 -4 -8 -17 -5 -28 4 -11 2 -23 -3 -26 -5
-4 -12 7 -16 24 -11 50 13 95 29 53z m-384 -12 c0 -6 -4 -12 -10 -16 -5 -3 -7
-12 -4 -19 7 -17 -14 -32 -27 -19 -12 12 12 63 29 63 6 0 12 -4 12 -9z m420
-41 c8 -15 8 -30 0 -55 -14 -44 -25 -45 -24 -2 4 88 5 92 24 57z m-73 -68 c18
-18 16 -29 -8 -68 -14 -24 -25 -31 -37 -27 -34 13 -57 63 -28 63 15 0 30 29
21 39 -3 3 -10 -1 -15 -9 -8 -12 -10 -11 -10 5 0 27 15 49 29 41 6 -4 11 -1
12 6 0 7 6 2 12 -12 6 -14 17 -31 24 -38z m671 -70 c24 -85 26 -136 5 -153
-15 -13 -16 -9 -4 24 11 29 -20 164 -50 215 -26 44 -24 53 5 19 12 -15 32 -63
44 -105z m-1181 62 c-3 -3 -12 -4 -19 -1 -8 3 -5 6 6 6 11 1 17 -2 13 -5z
m570 -56 c-3 -8 -6 -5 -6 6 -1 11 2 17 5 13 3 -3 4 -12 1 -19z m553 -68 c0 -5
-4 -10 -10 -10 -5 0 -10 5 -10 10 0 6 5 10 10 10 6 0 10 -4 10 -10z m-449 -43
c-8 -8 -11 -7 -11 4 0 9 3 19 7 23 4 4 9 2 11 -4 3 -7 -1 -17 -7 -23z m-611
-60 c0 -65 11 -123 34 -178 7 -15 2 -16 -56 -4 -35 8 -65 15 -68 17 -3 2 -5
43 -4 92 1 89 1 90 34 118 53 44 60 38 60 -45z m1078 38 c-3 -3 -9 2 -12 12
-6 14 -5 15 5 6 7 -7 10 -15 7 -18z m-580 -100 c-12 -27 -28 -34 -28 -12 0 14
20 37 32 37 4 0 2 -11 -4 -25z m-224 -18 c15 -24 -3 -35 -20 -13 -8 11 -14 24
-14 29 0 13 22 3 34 -16z m266 -7 c-6 -11 -18 -20 -27 -20 -14 0 -14 2 2 20
10 11 22 20 27 20 5 0 4 -9 -2 -20z m100 3 c0 -14 -19 -38 -25 -32 -8 8 5 39
16 39 5 0 9 -3 9 -7z m-456 -79 c34 -29 48 -62 33 -81 -7 -9 -5 -13 7 -13 9 0
16 -7 16 -16 0 -14 -3 -14 -15 -4 -10 9 -15 9 -15 1 0 -6 -7 -11 -15 -11 -9 0
-12 6 -8 16 4 11 2 15 -7 12 -8 -2 -22 4 -33 15 -21 21 -34 77 -18 77 6 0 11
7 11 15 0 21 7 19 44 -11z m316 2 c0 -23 -66 -88 -86 -84 -13 2 -19 -2 -18
-14 2 -24 -1 -23 -36 13 -31 33 -35 45 -22 67 7 9 13 8 27 -8 24 -27 39 -25
32 3 -6 21 -6 21 8 3 8 -11 15 -25 15 -30 0 -6 14 5 30 24 16 19 30 39 30 43
0 5 5 5 10 2 6 -3 10 -12 10 -19z m-320 -140 c54 -35 117 -74 141 -86 23 -12
49 -28 56 -36 15 -14 76 -34 106 -34 44 0 189 -44 265 -81 94 -46 117 -72 157
-187 34 -98 28 -129 -35 -182 -26 -22 -63 -43 -81 -46 -101 -18 -330 -122
-412 -187 -21 -16 -49 -47 -62 -67 -25 -40 -58 -138 -50 -150 3 -5 19 -11 36
-15 30 -7 54 6 216 117 23 15 48 28 55 28 8 0 25 11 38 25 13 14 30 25 37 25
7 0 21 4 31 10 83 47 207 67 256 41 66 -36 32 -83 -95 -132 -179 -68 -414
-173 -475 -212 -42 -26 -63 -71 -43 -92 5 -5 9 -17 9 -26 0 -22 47 -33 83 -20
46 18 211 124 234 151 12 14 39 35 59 45 21 11 61 33 89 49 81 46 161 68 205
56 21 -6 44 -17 51 -26 20 -24 -9 -43 -138 -94 -175 -69 -290 -132 -421 -230
-156 -116 -172 -140 -139 -207 22 -47 80 -15 123 68 9 18 41 43 89 70 41 22
79 48 84 57 5 9 13 14 16 10 4 -4 28 7 55 23 26 16 52 29 57 29 5 0 24 7 41
16 92 45 288 77 345 55 54 -21 39 -30 -167 -106 l-49 -18 28 -14 c23 -13 37
-13 79 -3 84 19 115 23 141 16 31 -8 25 -21 -12 -30 -16 -4 -35 -17 -44 -28
-15 -20 -15 -23 9 -50 21 -23 31 -28 54 -23 29 7 77 -19 78 -43 0 -7 -69 -46
-152 -88 -84 -41 -164 -86 -178 -99 l-24 -25 32 4 c42 6 76 17 82 27 3 5 19 5
35 0 22 -5 39 -3 63 11 43 24 57 23 109 -8 60 -35 55 -45 -47 -89 -50 -22
-195 -107 -218 -127 -10 -10 -23 -18 -29 -18 -5 0 -20 -11 -33 -25 l-24 -25
35 6 c19 4 36 11 37 16 5 12 69 -1 116 -23 45 -22 47 -20 66 39 7 23 18 42 23
42 6 0 31 -10 56 -21 56 -27 117 -82 138 -127 15 -32 15 -34 -14 -70 -17 -20
-43 -44 -59 -53 -37 -21 -104 -31 -124 -19 -13 8 -12 15 8 53 26 49 21 77 -13
77 -13 0 -25 5 -27 12 -3 7 -12 6 -30 -6 -22 -14 -39 -16 -97 -10 -65 6 -73 9
-89 36 l-17 29 -5 -27 c-3 -15 -9 -26 -13 -23 -5 2 -16 -9 -24 -25 -12 -24
-13 -30 -1 -37 13 -9 44 -13 63 -9 6 1 38 -1 73 -5 47 -5 65 -11 73 -26 8 -15
7 -24 -3 -36 -10 -12 -26 -14 -79 -9 l-67 6 -46 -52 c-25 -29 -46 -56 -46 -60
0 -5 -33 -23 -72 -42 -62 -29 -257 -139 -426 -240 -23 -14 -45 -33 -49 -42 -8
-20 15 -36 44 -29 22 5 73 -12 73 -25 0 -4 10 -20 22 -35 18 -23 23 -25 32
-13 6 7 22 15 36 15 14 1 26 7 28 12 2 5 10 7 18 4 8 -3 24 3 35 13 12 11 22
18 23 16 3 -7 96 40 96 48 0 6 8 10 19 10 10 0 35 11 55 25 20 14 39 25 42 25
3 0 17 11 31 24 34 32 140 86 168 86 12 0 25 3 29 8 4 4 17 8 29 9 12 1 54 8
92 15 88 16 107 14 145 -22 39 -36 39 -69 -1 -115 -39 -44 -73 -62 -130 -71
-59 -8 -169 -45 -169 -55 0 -13 112 1 130 16 22 17 79 18 105 1 13 -9 30 -30
39 -47 20 -41 12 -52 -62 -79 -30 -12 -67 -29 -82 -40 -15 -10 -64 -36 -111
-56 -46 -20 -136 -71 -199 -113 -112 -74 -223 -131 -325 -167 -48 -17 -165
-117 -165 -141 0 -22 49 -22 111 -2 35 12 69 24 74 29 6 4 37 22 70 40 33 18
73 44 88 56 16 13 32 24 36 24 3 0 21 13 39 30 68 62 97 78 152 85 49 6 115
38 145 70 6 5 23 16 39 23 24 11 32 10 52 -3 13 -8 25 -11 29 -5 8 14 53 -9
60 -32 4 -10 15 -23 26 -28 24 -13 27 -91 4 -110 -8 -7 -52 -26 -97 -42 -139
-50 -160 -58 -233 -92 -107 -50 -142 -66 -150 -66 -6 0 -58 -23 -151 -66 -28
-13 -55 -24 -59 -24 -15 0 -100 -43 -110 -56 -5 -7 -52 -34 -103 -59 -76 -37
-92 -49 -87 -63 4 -9 7 -33 6 -53 -2 -41 16 -61 53 -61 33 -1 133 49 145 71
13 24 85 53 114 46 17 -4 26 1 39 25 11 20 22 28 33 24 10 -4 29 8 54 33 32
34 43 39 70 35 26 -4 31 -1 31 16 0 22 24 47 39 38 5 -3 11 -3 13 1 1 5 18 16
35 26 25 14 37 15 53 7 23 -12 70 -3 70 14 0 6 7 19 14 29 13 17 16 17 39 3
28 -19 50 -78 45 -121 l-3 -30 -75 0 c-72 0 -140 -21 -140 -44 0 -15 -109 -61
-146 -61 -11 0 -24 -4 -30 -9 -10 -10 -117 -68 -206 -112 -31 -16 -81 -52
-110 -82 -29 -30 -68 -64 -85 -76 -39 -26 -42 -56 -13 -94 l21 -26 35 19 c19
11 43 20 54 20 17 0 19 -5 13 -32 -8 -44 -27 -62 -65 -64 -35 -2 -58 -26 -58
-61 0 -36 -25 -38 -77 -5 -27 16 -88 51 -138 77 -175 94 -335 213 -384 285
-13 19 -28 38 -33 41 -11 7 8 59 22 59 5 0 10 -4 10 -8 0 -5 17 -14 38 -20 36
-11 92 -54 92 -71 0 -5 9 -11 20 -14 11 -3 20 -13 20 -22 0 -11 5 -15 15 -12
8 4 17 2 20 -3 4 -6 14 -10 24 -10 10 0 53 -23 96 -50 130 -86 217 -118 146
-54 -27 24 -76 56 -320 209 -91 58 -154 98 -166 107 -5 5 -34 27 -62 49 -53
41 -61 53 -44 64 10 6 -18 65 -31 65 -5 0 -8 7 -8 16 0 10 6 14 14 11 9 -4 17
2 21 13 3 10 17 26 31 35 24 15 28 15 60 0 19 -9 71 -20 115 -25 45 -4 86 -13
92 -19 13 -13 27 -15 27 -3 0 4 -10 12 -23 18 -197 96 -385 220 -465 308 -35
38 -41 50 -32 65 8 16 7 18 -10 14 -11 -3 -18 -8 -17 -12 4 -12 -14 -13 -41
-3 -15 6 -46 16 -69 22 -22 5 -52 19 -65 30 l-23 20 77 75 c88 85 120 95 157
49 26 -34 26 -37 -4 -82 -14 -20 -25 -41 -25 -47 0 -16 90 -9 136 10 l39 17
-36 31 c-20 18 -42 43 -49 56 -11 21 -10 26 11 42 28 21 22 24 -56 33 -128 15
-245 82 -245 139 0 30 75 133 125 171 27 21 48 28 97 30 39 3 93 16 143 36
104 40 159 47 210 26 50 -21 47 -18 -104 89 -146 103 -202 125 -317 123 -72
-2 -78 0 -100 26 -38 43 -30 105 19 159 24 24 29 26 53 15 22 -10 28 -10 32 0
2 8 9 9 23 2 12 -7 19 -7 19 -1 0 5 -14 13 -32 16 -72 16 -121 84 -83 115 8 7
15 9 15 6 0 -4 9 -2 20 4 27 14 25 23 -9 43 -16 9 -38 37 -50 62 -18 38 -19
48 -9 67 22 37 42 59 75 82 l33 23 -48 26 c-26 15 -53 30 -60 35 -10 7 -10 25
-1 88 6 43 15 84 20 91 7 7 6 33 -1 74 -10 56 -10 65 8 88 39 53 131 64 251
31 40 -12 76 -18 79 -15 7 6 9 5 -58 39 -73 38 -89 53 -67 62 9 3 35 4 56 2
52 -5 40 10 -50 63 -177 106 -239 209 -155 260 40 25 126 17 267 -25 27 -8 49
-11 49 -7 0 12 -100 79 -135 90 -16 5 -55 15 -86 21 -45 9 -58 16 -63 33 -11
42 -6 168 9 202 21 53 108 138 170 169 30 14 78 47 105 71 57 51 79 58 150 53
27 -1 50 0 50 5 0 4 -4 7 -10 7 -5 0 -10 4 -10 9 0 12 216 118 250 124 14 2
27 5 29 6 2 0 48 -28 101 -63z m360 55 c0 -6 -4 -13 -10 -16 -5 -3 -10 1 -10
9 0 9 5 16 10 16 6 0 10 -4 10 -9z m-270 -50 c0 -12 -20 -25 -27 -18 -7 7 6
27 18 27 5 0 9 -4 9 -9z m205 -1 c3 -5 1 -10 -4 -10 -6 0 -11 5 -11 10 0 6 2
10 4 10 3 0 8 -4 11 -10z m-188 -32 c-3 -8 -6 -5 -6 6 -1 11 2 17 5 13 3 -3 4
-12 1 -19z m-1218 -52 c95 -64 148 -78 308 -78 110 -1 140 -4 136 -13 -2 -7
-18 -19 -33 -25 -16 -7 -67 -52 -113 -101 -47 -48 -101 -96 -121 -106 -35 -16
-39 -16 -91 2 -96 32 -185 151 -185 247 0 40 25 108 40 108 4 0 31 -15 59 -34z
m3055 -208 c85 -38 7 -122 -220 -236 -76 -39 -160 -80 -187 -91 -31 -13 -50
-29 -57 -46 -15 -39 -12 -95 4 -101 20 -8 63 23 79 55 6 14 21 27 32 29 11 2
28 11 38 20 10 9 27 17 39 19 12 2 26 11 33 20 7 9 17 13 23 9 7 -4 12 -1 12
8 0 8 17 23 37 33 20 10 41 27 47 38 6 11 14 22 17 25 3 3 8 11 10 19 4 11 8
11 21 -3 9 -9 23 -16 30 -16 7 0 24 -7 36 -16 12 -8 27 -12 32 -9 6 3 10 0 10
-7 -1 -21 -91 -89 -183 -138 -46 -25 -121 -70 -168 -101 -46 -31 -109 -72
-140 -91 -55 -35 -65 -54 -45 -86 5 -9 12 -9 27 -2 11 6 24 8 30 4 6 -3 17 3
25 15 8 12 22 21 29 21 8 0 20 9 27 20 7 11 18 20 24 20 7 0 26 14 44 30 18
17 40 30 49 30 9 0 27 9 41 20 14 11 31 20 38 20 6 0 21 9 32 20 60 60 127 72
166 29 9 -10 23 -19 31 -19 31 0 5 -32 -57 -73 -43 -28 -66 -50 -68 -65 -3
-16 0 -20 12 -16 11 4 16 1 16 -11 0 -9 5 -13 10 -10 6 3 13 -1 16 -9 3 -9 14
-16 24 -16 9 0 34 -13 54 -29 41 -33 43 -29 -53 -86 -36 -21 -59 -41 -52 -43
25 -8 61 -50 61 -71 0 -11 4 -21 9 -21 6 0 10 -8 10 -17 -1 -10 2 -28 6 -40 6
-18 2 -25 -19 -34 -31 -15 -33 -25 -6 -34 11 -3 20 -13 20 -21 0 -9 10 -14 28
-14 l27 -1 -23 -19 c-39 -33 -88 -41 -133 -23 -21 8 -39 19 -39 25 0 5 16 16
36 24 20 8 34 17 32 20 -7 6 -74 -26 -120 -56 -40 -27 -48 -44 -23 -54 8 -3
15 -17 15 -31 0 -30 -5 -30 95 -5 44 11 85 20 92 20 6 0 21 -21 34 -47 12 -27
27 -51 33 -55 8 -5 7 -14 -1 -28 -16 -25 -16 -25 3 -45 16 -15 16 -18 0 -33
-9 -9 -52 -35 -95 -57 -44 -22 -113 -57 -155 -78 -97 -50 -183 -55 -145 -10
25 30 42 70 35 82 -10 16 -53 13 -60 -4 -3 -8 -4 -16 -3 -18 2 -3 -14 -23 -45
-58 -10 -10 -27 -19 -39 -19 -23 0 -99 -64 -155 -131 l-37 -44 7 75 c12 141
25 385 31 600 6 188 35 548 51 635 4 24 3 27 -6 15 -14 -18 -16 -26 38 131 24
69 49 127 55 128 7 1 28 3 47 6 19 2 59 15 89 30 29 14 75 29 102 32 42 5 49
9 49 27 0 12 5 27 12 34 15 15 89 16 122 0z m-2931 -315 c77 -34 66 -41 -14
-9 -34 15 -68 26 -76 26 -7 0 -13 5 -13 11 0 13 25 6 103 -28z m2402 -120 c-4
-16 -11 -68 -15 -118 -7 -89 -7 -89 -8 -23 -2 64 14 168 25 168 3 0 2 -12 -2
-27z m-2555 -133 c0 -5 -2 -10 -4 -10 -3 0 -8 5 -11 10 -3 6 -1 10 4 10 6 0
11 -4 11 -10z m258 -84 c15 -8 35 -23 45 -34 18 -19 17 -19 -25 -12 -41 8 -73
34 -62 51 7 12 10 11 42 -5z m2269 -48 c-3 -7 -5 -2 -5 12 0 14 2 19 5 13 2
-7 2 -19 0 -25z m-2529 -83 c0 -47 -2 -54 -8 -30 -11 42 -11 149 0 115 4 -14
8 -52 8 -85z m3200 -71 c14 -4 22 -14 22 -27 0 -16 -3 -18 -12 -9 -7 7 -20 12
-29 12 -9 0 -19 7 -23 15 -6 16 5 18 42 9z m-3171 -599 c-1 -275 -13 -138 -19
220 -5 249 -5 249 8 120 7 -71 12 -224 11 -340z m2923 320 c0 -8 -4 -15 -10
-15 -5 0 -10 7 -10 15 0 8 5 15 10 15 6 0 10 -7 10 -15z m95 -467 c14 -55 32
-80 54 -76 15 3 89 -71 110 -111 15 -27 -11 -74 -57 -102 -129 -78 -231 -130
-326 -169 -59 -23 -120 -53 -135 -65 -14 -12 -41 -27 -60 -35 -31 -12 -35 -12
-48 6 -12 17 -12 21 6 34 91 71 88 67 93 119 3 32 14 62 30 83 13 18 39 58 56
88 17 30 49 75 72 99 22 24 40 47 40 51 0 4 7 13 15 20 8 7 15 18 15 26 0 15
36 56 65 72 37 22 57 11 70 -40z m-3008 -210 c-2 -18 -4 -4 -4 32 0 36 2 50 4
33 2 -18 2 -48 0 -65z m-46 -176 c-7 -31 -16 -72 -18 -89 -3 -18 -7 -33 -9
-33 -16 0 -84 43 -84 53 0 15 44 82 78 120 37 40 49 21 33 -51z m3136 -38 c4
-10 0 -20 -10 -26 -10 -5 -17 -15 -17 -22 0 -7 -9 -21 -20 -31 -11 -10 -20
-24 -20 -31 0 -27 -58 -79 -119 -107 -36 -16 -110 -42 -166 -58 -100 -29 -154
-34 -166 -16 -7 10 25 47 41 47 12 0 49 20 68 38 7 6 27 12 43 12 22 0 29 5
29 19 0 10 7 22 16 25 9 4 14 13 10 21 -9 25 29 13 74 -22 12 -9 19 -8 35 5
32 26 37 50 15 72 -27 27 -26 31 15 59 25 17 39 21 47 13 17 -13 91 -8 96 7 5
16 22 13 29 -5z m-3026 -58 c-23 -37 -43 -49 -66 -40 -24 10 -18 20 33 56 53
39 64 34 33 -16z m300 -21 c-1 -15 -49 -28 -69 -20 -14 6 -10 10 18 20 39 15
52 15 51 0z m2795 -129 c26 -25 44 -53 44 -66 0 -34 -78 -101 -177 -151 -49
-25 -132 -69 -186 -99 -88 -47 -105 -52 -155 -51 -50 1 -59 4 -80 31 -13 17
-32 30 -43 30 -27 0 -24 18 5 26 32 8 66 -11 66 -37 0 -11 4 -18 9 -15 5 3 7
15 4 26 -4 15 0 20 15 20 11 0 29 15 43 35 13 19 27 35 32 35 4 0 27 18 51 40
24 22 48 40 55 40 6 0 16 9 23 20 7 11 17 20 22 20 5 0 24 11 41 24 21 17 40
23 54 19 17 -4 24 -1 28 16 3 12 13 21 24 21 11 0 19 6 19 14 0 15 37 46 54
46 5 0 28 -20 52 -44z m2860 -112 c9 -48 -3 -54 -21 -11 -19 46 -19 58 0 51 8
-3 17 -21 21 -40z m-2353 25 c11 -7 37 -27 56 -46 l35 -34 -34 -27 c-34 -26
-80 -39 -80 -22 0 4 -14 13 -31 19 -26 9 -29 13 -20 25 8 10 9 21 3 33 -24 45
21 78 71 52z m770 -9 c24 -15 35 -28 35 -45 0 -14 -4 -23 -8 -20 -4 3 -13 -2
-20 -10 -9 -11 -17 -12 -30 -5 -29 16 -40 12 -71 -21 -27 -29 -29 -30 -29 -9
0 12 11 36 25 54 14 18 25 37 25 42 0 12 21 34 31 34 5 0 23 -9 42 -20z m-613
-84 c0 -10 -57 -32 -70 -27 -9 3 1 10 25 17 22 7 41 13 43 13 1 1 2 -1 2 -3z
m57 -2 c-3 -3 -12 -4 -19 -1 -8 3 -5 6 6 6 11 1 17 -2 13 -5z m213 -19 c44
-15 94 -62 111 -104 15 -38 4 -35 -26 8 -25 37 -109 91 -141 91 -7 0 -16 5
-19 10 -9 15 26 12 75 -5z m-717 -71 c11 -11 -5 -34 -24 -34 -17 0 -18 3 -7
20 13 21 21 24 31 14z m-3988 -25 c-4 -5 1 -9 9 -9 16 0 31 -18 23 -27 -3 -3
-20 5 -37 17 -23 17 -28 25 -19 31 16 9 32 1 24 -12z m4890 -19 c-3 -5 -11
-10 -16 -10 -6 0 -7 5 -4 10 3 6 11 10 16 10 6 0 7 -4 4 -10z m-4795 -28 c0
-5 -9 -17 -20 -27 -22 -20 -26 -14 -10 16 11 19 30 26 30 11z m3679 -8 c-7 -8
-35 -30 -63 -48 -28 -18 -71 -45 -96 -61 -62 -41 -134 -69 -229 -90 -46 -11
-81 -24 -81 -31 0 -23 -27 -36 -49 -24 -16 8 -21 8 -21 -1 0 -7 -3 -10 -6 -7
-3 4 -1 15 5 26 7 13 7 22 -1 30 -9 9 -4 12 20 12 17 0 35 6 39 13 10 15 88
54 128 62 17 4 40 11 52 17 18 9 27 8 43 -7 19 -17 21 -17 58 21 50 52 139
103 181 103 29 1 32 -1 20 -15z m-5205 -9 c59 -10 116 -35 116 -52 0 -10 -6
-13 -17 -8 -10 4 -55 20 -100 37 -81 29 -106 43 -60 34 12 -3 40 -8 61 -11z
m1984 3 c18 -18 14 -38 -8 -38 -11 0 -20 4 -20 8 0 5 -13 7 -30 4 -29 -4 -42
13 -23 31 11 12 68 8 81 -5z m3870 -7 c3 -8 -1 -12 -9 -9 -7 2 -15 10 -17 17
-3 8 1 12 9 9 7 -2 15 -10 17 -17z m187 9 c-3 -5 -13 -10 -21 -10 -8 0 -12 5
-9 10 3 6 13 10 21 10 8 0 12 -4 9 -10z m-3960 -9 c3 -5 1 -12 -5 -16 -5 -3
-10 1 -10 9 0 18 6 21 15 7z m2423 -23 c23 -18 42 -35 42 -39 0 -9 -58 -45
-87 -53 -18 -6 -24 -2 -28 17 -7 27 11 107 24 107 4 0 26 -14 49 -32z m-2968
-2 c0 -3 -4 -8 -10 -11 -5 -3 -10 -1 -10 4 0 6 5 11 10 11 6 0 10 -2 10 -4z
m278 -8 c19 -19 14 -30 -10 -22 -29 8 -31 10 -23 23 8 14 18 14 33 -1z m4025
-7 c18 -3 6 -96 -18 -138 -23 -38 -29 -42 -53 -37 -15 4 -31 10 -36 14 -11 10
1 30 18 30 20 0 37 25 30 44 -3 9 -15 16 -26 16 -23 0 -50 -24 -40 -35 4 -4
-5 -5 -20 -1 -26 6 -28 4 -28 -24 0 -18 -6 -33 -15 -36 -8 -4 -15 -10 -15 -15
0 -6 -9 -19 -20 -31 -14 -15 -20 -17 -20 -7 0 15 51 119 69 141 6 7 22 27 36
45 29 36 64 45 138 34z m93 -12 c8 -14 -11 -33 -25 -25 -11 7 -4 36 9 36 5 0
12 -5 16 -11z m-4364 -21 c-12 -12 -35 -1 -27 12 3 5 13 6 21 3 10 -4 12 -9 6
-15z m-182 -29 c0 -5 -4 -9 -10 -9 -5 0 -10 5 -10 11 0 7 -11 0 -25 -15 -27
-30 -35 -32 -35 -11 0 8 12 21 27 29 27 14 53 12 53 -5z m650 1 c0 -5 -7 -10
-15 -10 -8 0 -15 5 -15 10 0 6 7 10 15 10 8 0 15 -4 15 -10z m-370 -11 c0 -6
7 -17 15 -25 8 -9 15 -26 15 -38 0 -31 -30 -116 -41 -116 -12 0 -12 27 0 34
10 6 3 82 -9 105 -6 11 -10 10 -19 -7 -6 -11 -17 -26 -24 -34 -7 -7 -23 -33
-34 -58 -35 -71 -39 -76 -56 -61 -13 10 -16 8 -22 -9 -3 -11 -11 -18 -16 -14
-7 4 -8 -8 -3 -31 5 -30 4 -37 -7 -33 -8 3 -14 11 -14 19 0 8 -4 17 -8 20 -11
8 3 39 18 39 7 0 15 6 18 14 3 8 16 16 29 18 54 8 63 101 11 114 -37 10 -53
-16 -48 -79 3 -42 1 -50 -16 -54 -10 -3 -19 -12 -19 -19 0 -9 -11 -14 -29 -14
-16 0 -36 -3 -44 -6 -21 -8 -51 70 -37 96 16 30 30 24 30 -14 0 -44 22 -63 55
-48 48 22 22 91 -31 84 -20 -3 -23 1 -21 18 2 12 9 25 17 30 7 4 9 13 6 19 -4
6 0 14 9 18 10 3 21 0 25 -8 10 -15 12 -14 28 16 11 19 11 19 12 -3 0 -20 2
-21 22 -11 13 7 29 18 36 26 20 20 27 16 48 -22 10 -19 21 -35 25 -35 3 0 14
18 24 40 12 26 25 40 37 40 10 0 18 -5 18 -11z m-300 -24 c-7 -9 -15 -13 -19
-10 -3 3 1 10 9 15 21 14 24 12 10 -5z m537 -7 c-3 -8 -6 -5 -6 6 -1 11 2 17
5 13 3 -3 4 -12 1 -19z m-1590 -51 c-18 -35 -33 -63 -35 -61 -8 5 23 101 36
112 30 24 30 11 -1 -51z m1001 13 c4 0 13 5 20 12 9 9 12 6 12 -14 0 -31 -15
-45 -24 -22 -3 8 -10 12 -16 9 -5 -3 -10 1 -10 9 0 9 -4 16 -10 16 -5 0 -10
-5 -10 -10 0 -6 -13 -24 -30 -40 -16 -16 -30 -34 -30 -40 0 -5 -4 -10 -10 -10
-17 0 -12 10 38 69 40 49 48 55 54 39 4 -10 11 -18 16 -18z m470 18 c-2 -13
-7 -23 -13 -23 -5 0 -11 10 -13 23 -2 15 2 22 13 22 11 0 15 -7 13 -22z m4136
7 c-4 -8 -10 -15 -16 -15 -5 0 -6 -5 -3 -10 8 -12 -10 -37 -36 -51 -17 -9 -17
-7 -3 35 14 39 24 50 56 55 4 0 5 -6 2 -14z m128 -20 c0 -5 -5 -11 -11 -13 -6
-2 -11 4 -11 13 0 9 5 15 11 13 6 -2 11 -8 11 -13z m-4292 -15 c0 -5 -4 -10
-10 -10 -5 0 -10 5 -10 10 0 6 5 10 10 10 6 0 10 -4 10 -10z m-241 -36 c-14
-18 -24 -11 -15 11 3 9 11 13 16 10 8 -5 7 -11 -1 -21z m-204 6 c3 -5 1 -10
-4 -10 -6 0 -11 5 -11 10 0 6 2 10 4 10 3 0 8 -4 11 -10z m4405 2 c0 -13 -23
-32 -39 -32 -11 0 -10 4 4 20 19 21 35 26 35 12z m-3800 -32 c0 -5 -4 -10 -10
-10 -5 0 -10 5 -10 10 0 6 5 10 10 10 6 0 10 -4 10 -10z m2580 -8 c0 -5 10
-13 22 -19 19 -8 22 -18 23 -61 0 -29 -1 -52 -2 -52 -7 0 -51 79 -61 108 -9
26 -8 32 4 32 7 0 14 -4 14 -8z m1050 0 c0 -4 -9 -15 -20 -25 -11 -9 -20 -24
-20 -32 0 -8 -7 -15 -15 -15 -23 0 -18 20 13 51 27 28 42 36 42 21z m-4313
-24 c-3 -8 -6 -5 -6 6 -1 11 2 17 5 13 3 -3 4 -12 1 -19z m4223 13 c0 -6 -4
-13 -10 -16 -5 -3 -10 1 -10 9 0 9 5 16 10 16 6 0 10 -4 10 -9z m450 -5 c-16
-20 -68 -37 -76 -25 -10 18 15 36 52 37 30 1 34 -1 24 -12z m-5633 -18 c-3 -8
-6 -5 -6 6 -1 11 2 17 5 13 3 -3 4 -12 1 -19z m5143 8 c0 -3 -4 -8 -10 -11 -5
-3 -10 -1 -10 4 0 6 5 11 10 11 6 0 10 -2 10 -4z m196 -10 c4 -11 20 -14 60
-12 53 3 54 3 38 -15 -13 -14 -26 -17 -53 -14 -20 3 -45 7 -56 8 -35 4 -48 17
-34 33 15 18 38 18 45 0z m-4605 -17 c40 -17 61 -20 104 -15 l55 6 0 -42 c0
-38 -21 -78 -40 -78 -4 0 -15 18 -25 40 -10 22 -22 40 -27 40 -14 0 -9 -17 18
-66 14 -25 22 -50 17 -55 -13 -13 -27 1 -63 59 -40 66 -63 75 -160 66 -79 -7
-86 -6 -82 13 1 6 -3 15 -10 19 -8 5 10 13 47 20 89 17 111 16 166 -7z m-415
0 c6 -10 -11 -29 -26 -29 -3 0 -11 4 -19 9 -17 11 -5 31 19 31 10 0 22 -5 26
-11z m1044 1 c0 -11 -51 -60 -62 -60 -12 0 -9 28 4 50 13 20 58 28 58 10z
m214 -21 c-3 -5 -10 -7 -15 -3 -5 3 -7 10 -3 15 3 5 10 7 15 3 5 -3 7 -10 3
-15z m4171 2 c-3 -6 -14 -11 -23 -11 -15 1 -15 2 2 15 21 16 32 13 21 -4z
m-3555 2 c-1 -5 -11 -21 -24 -37 -23 -27 -25 -28 -47 -12 -17 11 -19 16 -8 16
9 0 24 9 34 20 18 20 45 27 45 13z m2890 -20 c0 -7 -4 -13 -9 -13 -5 0 -11 6
-14 13 -3 8 1 14 9 14 8 0 14 -6 14 -14z m223 -9 c19 -7 22 -20 7 -29 -13 -8
-61 25 -54 37 3 5 11 7 17 4 7 -4 20 -9 30 -12z m87 6 c0 -5 7 -10 16 -10 15
0 53 -37 54 -52 0 -12 -38 -10 -45 2 -3 6 -17 10 -29 10 -13 0 -30 7 -37 16
-11 14 -10 18 6 30 22 16 35 18 35 4z m180 0 c0 -5 -5 -10 -11 -10 -5 0 -7 5
-4 10 3 6 8 10 11 10 2 0 4 -4 4 -10z m-430 -20 c0 -12 -28 -25 -36 -17 -9 9
6 27 22 27 8 0 14 -5 14 -10z m-4200 -32 c0 -5 -4 -8 -10 -8 -5 0 -10 10 -10
23 0 18 2 19 10 7 5 -8 10 -18 10 -22z m128 4 c2 -7 -3 -12 -12 -12 -9 0 -16
7 -16 16 0 17 22 14 28 -4z m232 14 c0 -3 -4 -8 -10 -11 -5 -3 -10 -1 -10 4 0
6 5 11 10 11 6 0 10 -2 10 -4z m3720 -16 c0 -5 -4 -10 -10 -10 -5 0 -10 5 -10
10 0 6 5 10 10 10 6 0 10 -4 10 -10z m164 -5 c-6 -16 -34 -21 -34 -7 0 13 11
22 26 22 8 0 11 -6 8 -15z m-3524 -5 c0 -5 -4 -10 -10 -10 -5 0 -10 5 -10 10
0 6 5 10 10 10 6 0 10 -4 10 -10z m3574 4 c23 -9 20 -24 -4 -24 -11 0 -20 7
-20 15 0 17 2 18 24 9z m326 -3 c0 -5 -7 -14 -15 -21 -18 -15 -42 1 -31 19 8
13 46 15 46 2z m-5178 -115 c80 -43 178 -130 178 -157 0 -33 -27 -87 -49 -99
-36 -19 -100 18 -156 89 -27 34 -67 75 -89 89 -42 28 -44 34 -69 159 l-6 32
62 -38 c34 -21 92 -55 129 -75z m888 104 c0 -5 -4 -10 -10 -10 -5 0 -10 5 -10
10 0 6 5 10 10 10 6 0 10 -4 10 -10z m-152 -11 c-2 -6 -8 -10 -13 -10 -5 0
-11 4 -13 10 -2 6 4 11 13 11 9 0 15 -5 13 -11z m3872 -4 c0 -8 -4 -15 -10
-15 -5 0 -10 7 -10 15 0 8 5 15 10 15 6 0 10 -7 10 -15z m70 5 c0 -5 -4 -10
-10 -10 -5 0 -10 5 -10 10 0 6 5 10 10 10 6 0 10 -4 10 -10z m-4070 -4 c0 -3
-4 -8 -10 -11 -5 -3 -10 -1 -10 4 0 6 5 11 10 11 6 0 10 -2 10 -4z m173 -21
c-6 -18 -19 -19 -29 -4 -7 12 15 31 28 23 4 -3 5 -11 1 -19z m4541 16 c3 -5 0
-11 -8 -14 -15 -6 -26 1 -26 15 0 11 27 10 34 -1z m-4319 -11 c3 -5 1 -10 -4
-10 -6 0 -11 5 -11 10 0 6 2 10 4 10 3 0 8 -4 11 -10z m3645 -15 c0 -8 -4 -15
-10 -15 -5 0 -10 7 -10 15 0 8 5 15 10 15 6 0 10 -7 10 -15z m100 5 c0 -5 -5
-10 -11 -10 -5 0 -7 5 -4 10 3 6 8 10 11 10 2 0 4 -4 4 -10z m-200 -10 c0 -5
-5 -10 -11 -10 -5 0 -7 5 -4 10 3 6 8 10 11 10 2 0 4 -4 4 -10z m30 0 c0 -5
-4 -10 -10 -10 -5 0 -10 5 -10 10 0 6 5 10 10 10 6 0 10 -4 10 -10z m486 -17
c-10 -10 -19 5 -10 18 6 11 8 11 12 0 2 -7 1 -15 -2 -18z m-86 -4 c0 -5 -4 -9
-10 -9 -5 0 -10 7 -10 16 0 8 5 12 10 9 6 -3 10 -10 10 -16z m-4340 1 c0 -5
-4 -10 -10 -10 -5 0 -10 5 -10 10 0 6 5 10 10 10 6 0 10 -4 10 -10z m3936 -43
c-2 -7 -5 -4 -5 6 -1 9 -6 17 -12 17 -5 0 -7 5 -3 11 9 15 28 -16 20 -34z
m140 16 c-10 -10 -19 5 -10 18 6 11 8 11 12 0 2 -7 1 -15 -2 -18z m-3866 -23
c0 -5 -7 -10 -15 -10 -8 0 -15 5 -15 10 0 6 7 10 15 10 8 0 15 -4 15 -10z
m2677 -17 c2 -6 -3 -13 -12 -16 -10 -5 -15 0 -15 14 0 21 21 22 27 2z m1133 2
c0 -8 -4 -15 -9 -15 -13 0 -22 16 -14 24 11 11 23 6 23 -9z m-3729 -8 c-1 -12
-15 -9 -19 4 -3 6 1 10 8 8 6 -3 11 -8 11 -12z m3535 -62 c1 -14 -2 -22 -7
-19 -11 6 -12 44 -1 44 4 0 8 -11 8 -25z m-3576 -19 c0 -3 -4 -8 -10 -11 -5
-3 -10 -1 -10 4 0 6 5 11 10 11 6 0 10 -2 10 -4z m3150 -51 c14 -16 10 -18
-14 -9 -9 3 -16 10 -16 15 0 14 16 11 30 -6z m-2255 -178 c17 -34 36 -61 43
-59 6 1 11 -1 10 -5 -2 -5 2 -10 7 -12 17 -8 160 -123 163 -132 6 -14 -10 -11
-28 6 -9 8 -70 25 -134 37 -104 19 -120 25 -129 45 -8 17 -7 33 1 56 7 18 15
54 18 80 4 26 9 47 13 46 3 0 20 -28 36 -62z m-785 -147 c0 -5 -5 -10 -11 -10
-5 0 -7 5 -4 10 3 6 8 10 11 10 2 0 4 -4 4 -10z m2350 -170 c5 0 26 -12 47
-26 21 -14 50 -28 65 -31 15 -3 35 -14 44 -24 9 -11 22 -19 29 -19 6 0 18 -12
25 -26 17 -31 56 -60 107 -79 l38 -14 -44 0 c-24 -1 -74 8 -110 18 -36 11 -85
22 -109 26 -30 5 -42 11 -38 20 2 7 -4 31 -15 52 -15 30 -34 47 -74 69 -56 29
-64 38 -44 49 6 4 8 13 5 20 -10 26 18 21 42 -7 13 -15 28 -28 32 -28z m-1192
16 c72 -37 121 -79 103 -91 -6 -3 -11 -1 -11 4 0 10 -66 10 -86 -1 -5 -2 -15
-3 -21 -2 -7 1 -22 2 -33 3 -40 2 -114 101 -76 101 9 0 16 5 16 10 0 19 41 10
108 -24z m461 -141 c-17 -9 -28 -10 -36 -3 -22 18 -14 24 24 20 36 -5 36 -5
12 -17z m-801 -7 c7 -7 12 -15 12 -19 0 -8 -62 -49 -74 -49 -8 0 -8 65 1 73
11 11 48 8 61 -5z m159 -120 c21 -12 66 -46 101 -76 64 -56 133 -94 189 -106
18 -4 36 -12 39 -18 10 -16 -172 -3 -223 15 -77 29 -239 164 -219 184 3 3 20
9 38 13 18 4 34 8 35 9 1 1 19 -9 40 -21z m5343 -167 c0 -11 -31 -24 -39 -16
-3 3 1 10 9 15 19 12 30 12 30 1z m231 -21 c5 0 9 -5 9 -11 0 -8 -5 -8 -15 1
-8 7 -14 20 -14 29 1 13 2 13 6 -1 2 -10 9 -18 14 -18z m-217 -86 c4 -11 1
-14 -11 -12 -9 2 -18 9 -21 16 -6 18 25 15 32 -4z m-7689 -61 c2 -26 10 -61
19 -78 41 -73 54 -90 67 -90 8 0 15 -9 17 -20 1 -11 16 -29 32 -40 16 -11 33
-30 39 -42 6 -13 15 -23 21 -23 5 0 10 -9 10 -20 0 -11 4 -20 8 -20 5 0 15
-17 22 -39 17 -53 -1 -91 -51 -106 -43 -12 -85 -54 -119 -118 -14 -26 -40 -62
-57 -79 l-33 -32 -1 295 c-1 161 -2 332 -3 379 -1 47 0 89 2 93 10 19 25 -15
27 -60z m7645 -64 c0 -5 -4 -9 -10 -9 -5 0 -10 7 -10 16 0 8 5 12 10 9 6 -3
10 -10 10 -16z m-8130 -19 c0 -5 -4 -10 -10 -10 -5 0 -10 5 -10 10 0 6 5 10
10 10 6 0 10 -4 10 -10z m7990 -10 c0 -5 -4 -10 -10 -10 -5 0 -10 5 -10 10 0
6 5 10 10 10 6 0 10 -4 10 -10z m-7548 -245 c-12 -22 -27 -2 -18 22 5 12 10
13 17 6 7 -7 8 -17 1 -28z m7168 25 c0 -5 -5 -10 -11 -10 -5 0 -7 5 -4 10 3 6
8 10 11 10 2 0 4 -4 4 -10z m-7170 -80 c0 -5 -4 -10 -10 -10 -5 0 -10 5 -10
10 0 6 5 10 10 10 6 0 10 -4 10 -10z m0 -30 c0 -5 -5 -10 -11 -10 -5 0 -7 5
-4 10 3 6 8 10 11 10 2 0 4 -4 4 -10z m-10 -30 c0 -5 -5 -10 -11 -10 -5 0 -7
5 -4 10 3 6 8 10 11 10 2 0 4 -4 4 -10z m10 -30 c0 -5 -5 -10 -11 -10 -5 0 -7
5 -4 10 3 6 8 10 11 10 2 0 4 -4 4 -10z m-780 -460 c-6 -11 -13 -20 -16 -20
-2 0 0 9 6 20 6 11 13 20 16 20 2 0 0 -9 -6 -20z m775 10 c3 -5 1 -10 -4 -10
-6 0 -11 5 -11 10 0 6 2 10 4 10 3 0 8 -4 11 -10z m-561 -16 c19 -7 21 -24 3
-24 -7 0 -26 -12 -42 -27 -46 -43 -77 -57 -90 -40 -5 7 -15 12 -21 10 -6 -2
-11 6 -11 19 0 18 6 23 28 25 16 1 29 -2 29 -8 0 -6 10 -3 21 5 12 8 28 12 37
9 12 -5 14 -1 10 15 -6 23 5 28 36 16z m575 -47 c1 -5 -3 -5 -9 -2 -5 3 -10
16 -9 28 0 21 1 21 9 2 5 -11 9 -24 9 -28z m-817 1 c-7 -7 -12 -8 -12 -2 0 14
12 26 19 19 2 -3 -1 -11 -7 -17z m815 -55 c-3 -10 -5 -4 -5 12 0 17 2 24 5 18
2 -7 2 -21 0 -30z m-487 23 c0 -3 -4 -8 -10 -11 -5 -3 -10 -1 -10 4 0 6 5 11
10 11 6 0 10 -2 10 -4z m-41 -37 c-19 -12 -24 -2 -8 17 9 11 14 13 17 4 3 -7
-2 -16 -9 -21z m550 -51 c1 -5 -3 -8 -9 -8 -5 0 -10 12 -9 28 0 24 1 25 9 7 5
-11 9 -23 9 -27z m-689 -108 c0 -5 -5 -10 -11 -10 -5 0 -7 5 -4 10 3 6 8 10
11 10 2 0 4 -4 4 -10z m134 -15 c40 -17 41 -32 1 -32 -15 0 -25 5 -25 13 0 8
-8 14 -17 14 -12 0 -14 -3 -6 -8 6 -4 -17 -8 -52 -10 -35 -1 -66 2 -69 7 -4 5
10 7 33 4 27 -4 42 -1 52 10 18 21 37 21 83 2z m271 -15 c3 -5 1 -10 -4 -10
-6 0 -11 5 -11 10 0 6 2 10 4 10 3 0 8 -4 11 -10z m-285 -71 c0 -5 -4 -9 -10
-9 -5 0 -10 7 -10 16 0 8 5 12 10 9 6 -3 10 -10 10 -16z"/>
<path d="M4697 8121 c-3 -12 -2 -23 3 -26 11 -7 20 19 10 34 -5 9 -9 7 -13 -8z"/>
<path d="M4570 8029 c0 -5 5 -7 10 -4 6 3 10 8 10 11 0 2 -4 4 -10 4 -5 0 -10
-5 -10 -11z"/>
<path d="M5035 7520 c3 -5 13 -10 21 -10 8 0 12 5 9 10 -3 6 -13 10 -21 10 -8
0 -12 -4 -9 -10z"/>
<path d="M4900 7327 c0 -7 11 -12 28 -11 43 2 48 4 32 14 -22 14 -60 12 -60
-3z"/>
<path d="M4980 7310 c0 -5 7 -10 16 -10 8 0 12 5 9 10 -3 6 -10 10 -16 10 -5
0 -9 -4 -9 -10z"/>
<path d="M4912 7261 c-21 -13 -11 -56 13 -54 11 1 23 -3 26 -9 9 -15 32 1 25
18 -3 8 0 11 10 7 9 -3 14 1 14 11 0 9 -6 18 -12 20 -38 12 -65 14 -76 7z"/>
<path d="M5571 5419 c-13 -5 -37 -19 -54 -32 -18 -12 -54 -34 -81 -48 -88 -47
-286 -206 -286 -230 0 -5 8 -9 18 -9 42 0 92 23 141 65 30 26 66 49 80 52 14
3 42 25 61 49 19 23 42 43 51 43 9 1 27 9 40 20 16 12 39 18 69 18 50 -1 52 3
30 51 -15 33 -29 37 -69 21z"/>
<path d="M5800 5371 c-84 -40 -83 -39 -63 -71 9 -16 22 -32 29 -34 19 -7 78
49 71 67 -3 8 1 24 9 36 19 26 5 27 -46 2z"/>
<path d="M5626 5263 c-34 -22 -37 -26 -23 -40 13 -14 18 -13 46 8 17 12 31 31
31 41 0 23 -7 22 -54 -9z"/>
<path d="M5441 5164 c-41 -29 -58 -50 -65 -78 -5 -22 -3 -26 14 -26 11 0 20
-4 20 -10 0 -20 40 -9 74 21 31 27 71 87 63 95 -1 2 -21 6 -42 9 -30 5 -46 2
-64 -11z"/>
<path d="M5660 5090 c0 -5 7 -10 16 -10 8 0 12 5 9 10 -3 6 -10 10 -16 10 -5
0 -9 -4 -9 -10z"/>
<path d="M5554 5037 c-28 -24 -29 -57 -2 -57 23 1 68 48 62 64 -9 22 -28 20
-60 -7z"/>
<path d="M5192 4979 c-46 -39 -81 -76 -79 -82 6 -19 49 -14 90 11 21 12 56 24
79 26 42 4 68 25 68 55 0 13 -25 34 -70 58 -3 2 -42 -29 -88 -68z"/>
<path d="M5369 4942 c-36 -15 -72 -32 -80 -38 -8 -6 -49 -28 -92 -49 -75 -36
-105 -64 -78 -73 7 -2 21 -13 29 -23 17 -20 47 -25 56 -10 3 5 -1 14 -9 21
-21 18 -9 30 23 24 46 -9 80 10 84 48 2 24 8 33 21 32 9 -1 17 2 17 7 0 5 6 9
13 9 8 0 22 9 32 20 10 11 26 20 36 20 10 0 23 9 29 20 14 27 1 26 -81 -8z"/>
<path d="M5497 4789 c-71 -28 -165 -91 -147 -97 8 -3 20 -12 27 -21 10 -13 15
-14 32 -3 12 6 27 12 35 12 17 0 94 74 114 108 16 28 5 28 -61 1z"/>
<path d="M5267 4593 c-4 -3 -7 -11 -7 -17 0 -6 5 -5 12 2 6 6 9 14 7 17 -3 3
-9 2 -12 -2z"/>
<path d="M5176 4571 c-18 -19 -14 -47 5 -35 5 3 7 9 4 13 -2 5 9 11 25 15 17
3 30 10 30 16 0 17 -46 11 -64 -9z"/>
<path d="M5290 4554 c0 -8 5 -12 10 -9 6 4 8 11 5 16 -9 14 -15 11 -15 -7z"/>
<path d="M5110 4535 c0 -8 5 -15 10 -15 6 0 10 7 10 15 0 8 -4 15 -10 15 -5 0
-10 -7 -10 -15z"/>
<path d="M4350 4141 c0 -19 31 -32 72 -29 l43 3 -32 18 c-34 18 -83 23 -83 8z"/>
<path d="M6713 5910 c-12 -5 -24 -18 -27 -28 -4 -13 -13 -18 -25 -15 -9 2 -23
-3 -30 -11 -8 -9 -19 -16 -26 -16 -7 0 -18 -7 -25 -15 -10 -12 -9 -15 6 -16
11 0 27 -2 37 -4 10 -2 21 3 24 12 4 9 8 11 12 4 4 -6 16 -8 28 -5 16 4 21 13
21 34 -1 32 9 53 23 45 5 -4 9 1 9 9 0 9 -1 16 -2 15 -2 0 -13 -4 -25 -9z"/>
<path d="M6523 5783 c-37 -32 -45 -54 -22 -58 9 -2 26 -6 38 -10 15 -4 21 -2
21 9 0 12 7 14 30 10 23 -5 30 -3 30 9 0 9 -10 22 -22 28 -13 7 -28 18 -33 26
-8 11 -16 8 -42 -14z"/>
<path d="M6695 5678 c-33 -16 -89 -48 -124 -71 l-64 -41 34 -12 c19 -6 45 -9
59 -6 14 3 51 5 83 5 39 1 54 4 47 11 -15 15 -12 23 11 29 17 5 19 10 13 41
-4 23 -2 42 5 50 21 26 -3 23 -64 -6z"/>
<path d="M6395 5472 c-35 -25 -41 -72 -10 -72 18 0 28 17 30 52 2 29 -3 33
-20 20z"/>
<path d="M6570 5366 c-25 -18 -67 -55 -94 -81 -40 -39 -46 -49 -34 -56 16 -9
47 3 200 74 37 18 67 37 67 42 0 12 -65 55 -82 55 -7 0 -32 -16 -57 -34z"/>
<path d="M6360 5116 c0 -8 5 -18 10 -21 6 -3 10 1 10 9 0 8 -4 18 -10 21 -5 3
-10 -1 -10 -9z"/>
<path d="M7561 3906 c-16 -19 -11 -29 8 -17 7 5 12 14 9 21 -3 9 -8 7 -17 -4z"/>
<path d="M7513 3888 c-35 -40 -37 -52 -4 -27 17 12 31 29 31 36 0 18 -3 17
-27 -9z"/>
<path d="M2606 8893 c-11 -11 -6 -23 9 -23 8 0 15 4 15 9 0 13 -16 22 -24 14z"/>
<path d="M739 8824 c-1 -2 -2 -10 -3 -16 -1 -17 -83 -57 -129 -65 -58 -9 -86
3 -104 45 l-15 37 -18 -23 c-20 -25 -60 -42 -95 -42 -14 0 -39 -6 -57 -14 -18
-8 -53 -20 -77 -27 -29 -9 -53 -25 -73 -50 -16 -20 -45 -45 -64 -55 -19 -10
-46 -36 -59 -56 -14 -21 -30 -38 -35 -38 -6 0 -10 -18 -10 -41 0 -22 3 -39 8
-37 4 2 28 14 53 27 l45 23 44 -21 c24 -12 49 -21 56 -21 18 0 53 52 60 89 8
37 2 38 -37 10 -26 -18 -30 -19 -35 -4 -9 22 39 91 77 110 35 19 62 13 53 -10
-11 -27 31 -17 123 30 93 48 131 54 188 31 27 -12 35 -21 35 -40 0 -31 9 -32
57 -6 21 11 47 20 59 20 11 0 29 10 40 21 10 12 38 30 60 39 23 10 45 23 48
29 11 17 -29 31 -88 31 -30 0 -57 4 -60 9 -6 9 -45 22 -47 15z"/>
<path d="M1786 8755 c-12 -9 -29 -12 -44 -8 -26 6 -131 -14 -147 -29 -16 -14
26 -40 58 -35 18 2 27 -1 27 -10 0 -22 33 -14 70 17 19 16 49 40 65 54 26 22
27 25 10 25 -11 0 -29 -6 -39 -14z m-46 -43 c0 -12 -23 -32 -37 -32 -17 0 -17
27 0 33 19 8 37 8 37 -1z"/>
<path d="M2148 8743 c7 -3 16 -2 19 1 4 3 -2 6 -13 5 -11 0 -14 -3 -6 -6z"/>
<path d="M1590 8610 c0 -24 15 -27 24 -4 9 22 8 24 -9 24 -8 0 -15 -9 -15 -20z"/>
<path d="M8271 8589 c-23 -18 -23 -22 -12 -60 l12 -41 30 28 c33 31 38 69 11
83 -12 7 -24 4 -41 -10z"/>
<path d="M7035 8540 c-7 -12 2 -30 16 -30 12 0 12 27 0 35 -5 3 -12 1 -16 -5z"/>
<path d="M1481 8501 c-9 -6 -10 -11 -2 -15 13 -8 31 1 31 15 0 11 -11 11 -29
0z"/>
<path d="M8153 8430 c-30 -12 -30 -40 0 -40 25 0 47 17 47 37 0 15 -15 16 -47
3z"/>
<path d="M1491 8373 c-16 -39 -10 -68 8 -35 7 13 11 33 9 45 -3 19 -5 18 -17
-10z"/>
<path d="M124 8376 c-8 -21 35 -85 62 -92 28 -7 74 2 74 15 0 5 -20 17 -45 27
-32 12 -47 24 -51 40 -7 26 -31 32 -40 10z"/>
<path d="M744 8375 c-9 -23 3 -45 26 -45 25 0 28 45 4 54 -22 8 -24 8 -30 -9z"/>
<path d="M470 8361 c0 -24 21 -32 43 -16 25 18 21 30 -13 33 -24 2 -30 -2 -30
-17z"/>
<path d="M360 8320 c0 -13 11 -13 30 0 12 8 11 10 -7 10 -13 0 -23 -4 -23 -10z"/>
<path d="M42 8297 c-24 -13 -40 -26 -36 -30 14 -14 62 -7 88 14 53 42 19 53
-52 16z"/>
<path d="M8570 8170 c-12 -7 -9 -19 18 -74 18 -35 32 -70 32 -78 0 -25 31 -58
68 -74 41 -17 52 -29 52 -60 0 -29 -41 -54 -87 -54 -47 0 -103 -51 -103 -94 0
-15 -5 -47 -11 -72 -10 -37 -9 -48 5 -69 22 -34 20 -55 -5 -55 -12 0 -37 -9
-55 -21 -19 -11 -37 -18 -41 -16 -5 3 -9 -15 -11 -39 -1 -24 1 -44 5 -43 8 1
40 19 130 73 77 46 101 74 124 145 23 69 58 112 117 143 42 22 44 64 4 110
-16 18 -40 53 -54 78 -15 25 -47 62 -71 82 -25 21 -48 48 -52 60 -17 62 -34
78 -65 58z"/>
<path d="M8127 8144 c-3 -3 -2 -17 4 -31 5 -13 9 -41 9 -62 l0 -39 -65 -7
c-62 -6 -66 -8 -80 -41 -8 -20 -25 -38 -44 -46 -38 -16 -28 -39 20 -44 18 -2
38 -9 43 -14 6 -6 17 -10 26 -10 10 0 28 -10 41 -21 13 -12 36 -26 52 -31 15
-6 27 -16 27 -24 0 -8 8 -14 18 -14 19 0 62 65 62 92 0 26 -35 56 -71 63 -54
10 -66 20 -49 40 8 10 22 14 34 11 26 -6 38 2 54 37 25 58 11 107 -38 132 -33
17 -34 17 -43 9z"/>
<path d="M934 7969 c-20 -40 -10 -50 55 -57 55 -5 59 0 40 42 -9 20 -52 46
-75 46 -2 0 -11 -14 -20 -31z"/>
<path d="M991 7811 c-12 -8 -12 -12 -2 -25 20 -24 41 -19 41 9 0 26 -14 31
-39 16z"/>
<path d="M7964 7639 c-9 -15 12 -33 30 -26 9 4 16 13 16 22 0 17 -35 21 -46 4z"/>
<path d="M8262 7636 c1 -10 8 -17 13 -17 15 1 12 24 -3 29 -9 3 -13 -2 -10
-12z"/>
<path d="M8225 7587 c-11 -9 -14 -16 -7 -21 15 -9 42 4 42 20 0 18 -11 18 -35
1z"/>
<path d="M1727 7580 c-57 -7 -88 -23 -74 -37 9 -9 226 -7 235 2 4 4 -4 15 -17
26 -24 20 -47 21 -144 9z"/>
<path d="M9210 7549 c0 -5 5 -7 10 -4 6 3 10 8 10 11 0 2 -4 4 -10 4 -5 0 -10
-5 -10 -11z"/>
<path d="M7808 7534 c-21 -11 -28 -22 -28 -43 0 -16 -7 -34 -15 -41 -8 -7 -15
-16 -15 -21 0 -5 7 -9 15 -9 8 0 15 7 15 15 0 9 18 35 40 59 22 24 40 46 40
50 0 10 -23 6 -52 -10z"/>
<path d="M8314 7417 c-3 -8 -4 -18 -3 -23 6 -33 -3 -74 -16 -74 -29 0 -14 -25
31 -52 25 -16 54 -28 64 -28 28 0 34 35 14 85 -9 24 -14 53 -11 64 3 15 -1 22
-17 26 -11 4 -29 9 -39 11 -9 3 -20 -1 -23 -9z"/>
<path d="M8190 7363 c0 -10 61 -45 67 -39 4 4 -51 46 -61 46 -3 0 -6 -3 -6 -7z"/>
<path d="M9160 7327 c0 -7 -11 -24 -24 -36 -20 -19 -23 -27 -15 -50 13 -36 48
-74 87 -93 41 -21 44 -3 7 40 -29 35 -31 49 -8 74 13 14 15 25 7 46 -10 29
-54 45 -54 19z"/>
<path d="M8457 7213 c-22 -22 16 -50 44 -33 10 7 10 11 0 24 -14 17 -33 21
-44 9z"/>
<path d="M7457 7173 c-10 -10 -8 -43 2 -43 28 0 60 21 55 35 -6 15 -45 21 -57
8z"/>
<path d="M8975 7170 c-3 -5 1 -10 9 -10 9 0 16 5 16 10 0 6 -4 10 -9 10 -6 0
-13 -4 -16 -10z"/>
<path d="M7650 7150 c0 -5 5 -10 10 -10 6 0 10 5 10 10 0 6 -4 10 -10 10 -5 0
-10 -4 -10 -10z"/>
<path d="M8613 7114 c-17 -13 -16 -15 10 -39 22 -19 37 -24 74 -22 25 1 48 7
50 12 2 6 -24 22 -56 37 -52 23 -62 24 -78 12z"/>
<path d="M8840 7060 c0 -5 5 -10 10 -10 6 0 10 5 10 10 0 6 -4 10 -10 10 -5 0
-10 -4 -10 -10z"/>
<path d="M8960 6816 c0 -17 27 -29 35 -16 4 6 3 15 0 20 -9 15 -35 12 -35 -4z"/>
<path d="M8991 6681 c-16 -16 -20 -28 -15 -44 8 -24 32 -46 52 -47 17 0 16 71
-1 95 -13 17 -15 17 -36 -4z"/>
<path d="M9327 6645 c6 -18 41 -38 123 -72 60 -25 92 -24 70 2 -7 8 -16 12
-21 10 -4 -3 -16 6 -25 20 -12 18 -25 25 -48 25 -17 0 -40 7 -50 15 -27 20
-57 20 -49 0z"/>
<path d="M9554 6619 c-3 -6 -1 -16 5 -22 8 -8 11 -5 11 11 0 24 -5 28 -16 11z"/>
<path d="M9577 6599 c-7 -24 8 -69 22 -69 17 0 22 37 10 64 -15 31 -25 33 -32
5z"/>
<path d="M9295 6540 c-3 -5 -1 -20 4 -33 7 -19 15 -24 30 -20 11 3 35 -4 55
-17 59 -36 80 -1 24 40 -33 24 -105 43 -113 30z"/>
<path d="M9640 6450 c0 -5 10 -14 22 -21 18 -10 20 -9 15 6 -4 9 -7 19 -7 21
0 2 -7 4 -15 4 -8 0 -15 -4 -15 -10z"/>
<path d="M9515 6130 c-3 -5 -3 -20 1 -34 4 -19 2 -28 -10 -32 -18 -7 -22 -39
-5 -49 6 -4 17 2 25 14 20 27 64 29 64 2 0 -22 37 -47 119 -82 64 -27 86 -19
86 31 0 25 5 35 23 41 35 13 36 34 3 70 l-31 33 -31 -18 c-26 -15 -43 -17
-101 -11 -81 7 -122 20 -113 35 3 5 -1 10 -9 10 -8 0 -17 -4 -21 -10z"/>
<path d="M3150 6043 c0 -4 14 -21 30 -38 17 -18 28 -38 25 -46 -7 -19 -66 -58
-112 -75 -21 -7 -30 -13 -21 -14 28 0 31 -19 4 -30 -19 -7 -24 -14 -19 -27 7
-21 43 -63 54 -63 4 0 11 10 15 23 15 51 116 125 145 106 19 -12 109 -12 109
1 0 18 -91 94 -157 133 -69 39 -73 41 -73 30z"/>
<path d="M9633 5884 c-39 -17 -54 -57 -30 -82 15 -14 20 -13 56 12 45 31 56
52 40 72 -14 17 -24 17 -66 -2z"/>
<path d="M9760 5755 c-7 -8 -18 -15 -25 -15 -17 0 -25 -23 -18 -49 7 -27 18
-26 49 4 14 14 27 25 29 25 3 0 11 -13 20 -29 14 -28 63 -61 90 -61 7 0 16 -7
19 -16 8 -22 7 -54 -2 -54 -9 0 -49 -84 -58 -123 -4 -17 -16 -32 -30 -37 -31
-12 -22 -45 10 -35 11 4 55 11 96 15 41 3 83 10 92 14 13 6 15 3 11 -12 -2
-11 3 -31 12 -45 16 -25 16 -26 -9 -42 -26 -17 -35 -58 -16 -70 6 -3 10 -2 10
4 0 6 6 8 14 5 7 -3 16 2 20 11 8 22 69 11 117 -21 19 -13 38 -24 42 -24 4 0
7 27 7 60 0 33 -4 60 -10 60 -5 0 -10 -4 -10 -9 0 -14 -41 -24 -52 -13 -6 6
-6 16 1 29 14 27 -4 44 -38 37 -18 -4 -35 1 -51 15 l-25 21 24 20 c13 11 21
26 18 34 -3 8 1 22 8 33 18 24 49 7 53 -29 2 -15 13 -30 28 -37 52 -23 54 -20
54 101 0 61 -3 108 -6 105 -4 -3 -18 3 -32 13 -13 11 -31 20 -39 20 -8 0 -29
6 -46 14 -42 18 -86 33 -119 40 -14 3 -34 9 -43 12 -15 6 -15 4 -2 -27 12 -30
12 -36 0 -48 -12 -11 -24 -3 -76 53 -63 68 -93 80 -117 51z m445 -157 c15 -13
-9 -43 -34 -41 -24 3 -61 32 -61 49 0 14 79 7 95 -8z m-130 -72 c11 -32 -8
-51 -37 -35 -21 11 -23 34 -5 54 17 19 30 13 42 -19z m-121 -32 c20 -8 21 -40
1 -48 -11 -4 -19 3 -25 20 -15 37 -11 41 24 28z"/>
<path d="M3162 5678 c-5 -7 -17 -27 -25 -44 -15 -29 -15 -32 4 -48 11 -9 24
-14 29 -11 18 11 10 -15 -16 -56 -22 -36 -24 -44 -14 -75 15 -45 35 -52 64
-25 12 11 26 21 30 21 4 0 34 20 67 45 32 25 64 45 71 44 32 -4 98 2 98 9 0
11 -94 61 -157 83 -32 11 -75 31 -95 44 -44 29 -43 29 -56 13z m18 -212 c0 -3
-4 -8 -10 -11 -5 -3 -10 -1 -10 4 0 6 5 11 10 11 6 0 10 -2 10 -4z"/>
<path d="M9619 5468 c0 -2 -1 -23 -2 -48 -2 -36 3 -50 23 -70 14 -13 28 -23
33 -22 4 1 7 -6 7 -16 0 -10 16 -33 36 -51 37 -32 37 -32 72 -15 25 11 37 13
45 5 6 -6 8 -11 4 -11 -4 0 -1 -13 7 -29 29 -55 43 -107 34 -130 -12 -34 33
-43 59 -11 8 10 30 15 69 15 l58 0 7 35 c4 19 5 38 3 42 -8 12 -59 9 -72 -4
-15 -15 -62 5 -62 28 0 8 -11 35 -25 58 -20 33 -31 44 -51 44 -14 0 -38 9 -52
21 -37 30 -88 52 -105 46 -18 -8 -45 25 -53 63 -5 25 -3 32 9 32 9 0 22 -7 31
-15 16 -17 36 -20 36 -6 0 18 -44 41 -77 41 -18 0 -33 -1 -34 -2z"/>
<path d="M2121 5358 c-6 -18 -36 -208 -67 -423 -30 -214 -62 -435 -70 -489 -8
-54 -12 -101 -10 -104 3 -2 8 20 12 49 5 30 9 47 11 39 2 -9 -6 -81 -17 -160
-19 -136 -19 -146 -3 -157 22 -17 68 -17 81 0 13 15 28 134 42 327 5 80 22
296 36 481 26 345 28 460 7 466 -6 2 -16 -11 -22 -29z m-114 -880 c-3 -8 -6
-5 -6 6 -1 11 2 17 5 13 3 -3 4 -12 1 -19z"/>
<path d="M2290 5373 c0 -4 -5 -37 -10 -73 -11 -80 -28 -333 -35 -540 -7 -203
-13 -281 -30 -420 -31 -247 -31 -240 25 -240 27 0 40 5 45 18 26 67 43 1251
18 1259 -7 3 -13 1 -13 -4z"/>
<path d="M10155 5027 c-40 -13 -41 -14 -20 -37 26 -28 42 -25 50 11 8 38 7 39
-30 26z"/>
<path d="M9090 4891 c4 -9 19 -25 32 -36 12 -11 18 -13 11 -6 -8 9 -9 20 -3
31 8 15 4 19 -20 22 -24 4 -27 2 -20 -11z"/>
<path d="M9690 4846 c0 -14 29 -31 38 -22 2 3 2 12 -1 21 -8 19 -37 20 -37 1z"/>
<path d="M10210 4800 c0 -5 7 -10 16 -10 8 0 12 5 9 10 -3 6 -10 10 -16 10 -5
0 -9 -4 -9 -10z"/>
<path d="M9794 4669 c-3 -6 -15 -9 -25 -6 -12 3 -23 -2 -30 -14 -8 -15 -4 -30
18 -69 15 -28 33 -50 39 -50 6 0 17 12 25 26 7 14 24 30 36 35 28 11 32 57 6
65 -10 3 -26 10 -35 15 -22 12 -25 11 -34 -2z"/>
<path d="M3183 4512 c26 -28 47 -58 47 -66 0 -8 12 -24 27 -36 19 -15 23 -24
16 -31 -14 -14 -36 -1 -29 17 3 8 -1 14 -9 14 -8 0 -22 11 -31 25 -17 26 -40
24 -30 -2 3 -8 2 -11 -4 -8 -18 11 -38 -39 -36 -89 2 -40 8 -54 30 -73 31 -27
48 -25 110 14 87 55 194 70 245 34 38 -28 144 -81 149 -76 9 9 -68 69 -156
122 -52 30 -108 68 -125 83 -40 34 -80 55 -137 70 -25 6 -61 21 -80 33 -34 20
-34 20 13 -31z m57 -141 c0 -18 -18 -21 -30 -6 -10 13 -9 15 9 15 11 0 21 -4
21 -9z"/>
<path d="M9840 4496 c0 -7 7 -19 15 -26 8 -7 15 -18 15 -24 0 -7 12 -23 27
-37 14 -13 23 -19 20 -13 -4 7 0 15 9 18 21 8 9 44 -24 74 -28 25 -62 29 -62
8z"/>
<path d="M10122 4482 c-10 -7 -8 -13 7 -26 21 -19 37 -7 27 19 -6 17 -15 18
-34 7z"/>
<path d="M9815 4430 c-8 -13 9 -20 24 -11 10 6 9 10 -3 14 -8 3 -18 2 -21 -3z"/>
<path d="M1961 4304 c0 -11 3 -14 6 -6 3 7 2 16 -1 19 -3 4 -6 -2 -5 -13z"/>
<path d="M1770 3842 c27 -45 61 -80 127 -134 20 -15 21 -15 27 14 16 79 12 86
-68 122 -122 56 -122 56 -86 -2z"/>
<path d="M1911 3654 c0 -11 3 -14 6 -6 3 7 2 16 -1 19 -3 4 -6 -2 -5 -13z"/>
<path d="M1822 2970 c0 -19 2 -27 5 -17 2 9 2 25 0 35 -3 9 -5 1 -5 -18z"/>
<path d="M1791 2874 c0 -11 3 -14 6 -6 3 7 2 16 -1 19 -3 4 -6 -2 -5 -13z"/>
<path d="M10194 2334 c3 -9 6 -20 6 -26 0 -6 8 -7 18 -4 14 5 14 4 -2 -9 -11
-8 -16 -15 -10 -15 44 1 40 69 -5 70 -8 0 -11 -6 -7 -16z"/>
<path d="M10220 2176 c0 -9 5 -16 10 -16 6 0 10 4 10 9 0 6 -4 13 -10 16 -5 3
-10 -1 -10 -9z"/>
<path d="M10177 2174 c-10 -11 5 -34 22 -34 9 0 22 -5 29 -12 22 -22 12 1 -12
26 -25 27 -29 30 -39 20z"/>
<path d="M10206 2113 c-11 -11 -6 -23 9 -23 8 0 15 4 15 9 0 13 -16 22 -24 14z"/>
<path d="M10210 2010 c0 -5 5 -10 11 -10 5 0 7 5 4 10 -3 6 -8 10 -11 10 -2 0
-4 -4 -4 -10z"/>
<path d="M9831 1975 c-1 -16 -3 -17 -11 -5 -5 8 -12 11 -17 7 -4 -5 -1 -12 7
-17 18 -11 34 3 27 22 -3 8 -6 5 -6 -7z"/>
<path d="M10180 1944 c0 -8 5 -12 10 -9 6 3 10 1 10 -6 0 -10 3 -10 11 -2 6 6
8 16 5 22 -11 17 -36 13 -36 -5z"/>
<path d="M9772 1914 c-14 -16 -5 -18 17 -5 7 5 9 11 5 14 -5 3 -15 -1 -22 -9z"/>
<path d="M9880 1897 c0 -9 -9 -12 -29 -9 -16 2 -32 -1 -35 -7 -10 -15 -46 -14
-46 1 0 9 -3 9 -12 0 -10 -10 -10 -15 1 -21 8 -5 20 -7 27 -4 7 2 18 -5 24
-17 13 -24 4 -43 -9 -21 -7 11 -13 11 -32 0 -13 -7 -29 -12 -35 -11 -6 1 -17
-5 -24 -13 -7 -8 -19 -15 -26 -15 -20 0 -17 -16 9 -41 22 -21 22 -22 1 -17
-12 3 -28 2 -37 -3 -10 -6 -17 -4 -21 6 -8 21 -23 19 -37 -6 -9 -17 -8 -23 2
-30 8 -4 16 -3 20 3 12 19 30 -1 19 -21 -12 -23 -4 -31 32 -31 32 0 38 19 8
27 -25 7 -25 15 1 31 14 9 24 10 33 3 9 -8 19 -5 35 10 l23 21 28 -20 27 -21
13 25 c8 13 22 24 32 24 10 0 28 11 40 25 13 15 32 25 49 25 21 0 27 4 23 15
-5 11 -2 13 10 9 20 -8 20 4 1 47 -12 29 -20 32 -16 6 2 -11 -33 9 -49 27 -15
19 -50 21 -50 3z m40 -26 c0 -5 -9 -11 -20 -14 -22 -6 -28 8 -7 16 19 8 27 8
27 -2z m-90 -97 c0 -8 -4 -12 -10 -9 -5 3 -10 10 -10 16 0 5 5 9 10 9 6 0 10
-7 10 -16z"/>
<path d="M9995 1779 c-10 -15 3 -25 16 -12 7 7 7 13 1 17 -6 3 -14 1 -17 -5z"/>
<path d="M9940 1745 c-7 -8 -19 -15 -27 -15 -7 0 -17 -8 -20 -17 -4 -10 -13
-24 -20 -31 -18 -18 0 -50 32 -58 28 -7 33 -22 10 -30 -16 -6 -21 -64 -6 -64
5 0 8 -14 6 -32 -1 -18 10 -59 26 -95 24 -55 26 -64 13 -77 -16 -17 -19 -30
-4 -21 6 3 10 -2 10 -12 0 -14 8 -18 37 -18 32 0 41 -6 65 -40 15 -22 27 -50
28 -63 0 -16 10 -27 35 -39 19 -9 35 -22 35 -30 0 -7 6 -10 15 -7 20 8 32 -25
14 -38 -11 -8 -10 -9 3 -4 10 3 20 1 23 -5 15 -24 25 9 25 82 0 65 -3 82 -19
98 -11 11 -21 17 -24 15 -3 -3 -13 5 -23 18 -11 13 -31 31 -46 41 -42 26 -53
53 -34 82 10 15 12 26 6 30 -6 3 -10 15 -10 26 0 11 -4 17 -10 14 -6 -3 -10 4
-10 18 0 14 -13 35 -30 51 -25 22 -29 30 -20 46 7 13 7 21 0 25 -6 4 -8 11 -5
16 4 5 -1 9 -10 9 -12 0 -14 6 -8 28 4 15 7 41 7 57 1 25 -3 30 -21 29 -12 0
-20 3 -17 7 9 15 -14 18 -26 4z m-17 -68 c-4 -6 -10 -2 -14 9 -12 31 -9 40 6
20 8 -10 11 -24 8 -29z m57 -57 c0 -5 -8 -10 -17 -10 -15 0 -16 2 -3 10 19 12
20 12 20 0z"/>
<path d="M9235 1740 c-3 -5 -1 -10 4 -10 6 0 11 5 11 10 0 6 -2 10 -4 10 -3 0
-8 -4 -11 -10z"/>
<path d="M8650 1362 c0 -4 9 -8 20 -8 11 0 20 4 20 8 0 4 -9 8 -20 8 -11 0
-20 -4 -20 -8z"/>
<path d="M10045 1140 c3 -5 8 -10 11 -10 2 0 4 5 4 10 0 6 -5 10 -11 10 -5 0
-7 -4 -4 -10z"/>
<path d="M8750 1110 c0 -11 6 -23 13 -27 8 -4 16 -16 20 -25 8 -22 86 -60 109
-52 10 3 31 -4 47 -15 16 -12 36 -21 44 -21 8 0 17 -6 20 -14 6 -16 61 -31 76
-21 13 8 2 37 -13 32 -12 -4 -94 39 -111 59 -13 15 -78 28 -70 14 11 -18 0
-11 -39 25 -21 19 -51 41 -67 49 -27 13 -29 13 -29 -4z"/>
<path d="M10075 1120 c4 -6 11 -8 16 -5 14 9 11 15 -7 15 -8 0 -12 -5 -9 -10z"/>
<path d="M10030 1100 c0 -5 5 -10 10 -10 6 0 10 5 10 10 0 6 -4 10 -10 10 -5
0 -10 -4 -10 -10z"/>
<path d="M9650 1053 c0 -22 -3 -24 -25 -19 -18 5 -25 2 -25 -9 0 -8 -6 -15
-14 -15 -9 0 -12 -7 -9 -20 6 -22 -7 -26 -25 -8 -16 16 -17 -35 0 -65 12 -23
46 -52 62 -52 5 0 11 -5 13 -11 3 -8 -8 -9 -37 -4 -22 4 -43 3 -46 -2 -3 -4
33 -46 80 -91 88 -84 103 -113 64 -119 -35 -5 -58 -61 -56 -136 1 -34 -2 -65
-6 -69 -13 -13 -31 17 -35 60 -2 14 -31 7 -31 -8 0 -19 -24 -20 -39 -1 -6 7
-31 26 -55 41 -38 24 -43 30 -30 42 20 21 17 34 -13 60 l-28 23 23 17 c21 15
22 17 6 34 -10 11 -21 19 -26 19 -5 0 -26 11 -48 25 -21 14 -45 26 -52 27 -31
7 -46 68 -17 68 5 0 9 10 9 23 0 13 5 28 11 34 8 8 5 14 -11 23 -20 11 -26 9
-49 -19 -15 -17 -31 -31 -37 -31 -6 0 -18 -8 -28 -19 -16 -17 -15 -19 8 -35
14 -9 32 -16 39 -16 38 0 43 -47 16 -137 -16 -51 -13 -112 5 -132 24 -26 25
-230 1 -247 -8 -6 -15 -21 -15 -33 0 -13 -7 -22 -17 -23 -39 -3 -49 -5 -67
-13 -26 -11 -52 8 -48 34 2 12 -2 30 -10 39 -7 8 -8 13 -3 10 21 -12 84 -17
90 -7 4 5 3 22 -3 37 -5 15 -15 46 -23 70 -8 28 -16 39 -22 33 -7 -7 -18 -3
-33 12 -29 27 -31 41 -3 27 11 -7 36 -13 54 -15 27 -2 35 2 44 22 16 34 14 47
-10 74 -29 33 -39 63 -39 115 0 35 5 50 25 68 44 41 29 68 -32 59 -25 -4 -33
-10 -33 -26 0 -19 -1 -19 -20 -2 -16 14 -23 15 -34 6 -8 -7 -12 -19 -9 -27 3
-9 -2 -14 -16 -14 -12 0 -22 -3 -22 -7 -1 -5 -3 -17 -5 -28 -12 -58 -9 -79 11
-83 11 -2 28 -11 37 -19 9 -8 25 -12 36 -9 12 4 28 -1 42 -12 l23 -18 -38 -23
c-25 -15 -47 -20 -63 -16 -38 9 -65 -3 -58 -29 5 -20 1 -22 -41 -24 -25 -1
-52 -7 -59 -13 -7 -6 -22 -8 -32 -5 -11 4 -24 0 -32 -9 -7 -8 -19 -15 -27 -15
-17 0 -73 -53 -73 -69 0 -19 22 -12 27 9 l5 21 34 -20 c23 -14 41 -18 57 -13
37 13 55 8 87 -23 26 -25 39 -30 76 -29 43 1 45 0 39 -23 -3 -14 -1 -31 6 -39
15 -19 -8 -19 -58 0 -21 8 -45 14 -53 14 -8 0 -22 3 -31 6 -11 5 -23 -1 -35
-16 -27 -34 -49 -40 -83 -20 -28 15 -31 15 -49 -1 -10 -9 -24 -17 -30 -17 -7
0 -12 -4 -12 -9 0 -14 -52 -28 -80 -21 -14 3 -26 15 -28 25 -2 11 -8 24 -13
29 -5 6 -9 17 -9 26 0 29 -32 48 -100 60 -55 10 -70 17 -101 51 -31 33 -41 39
-63 33 -14 -3 -49 1 -81 12 -41 12 -59 14 -67 6 -14 -14 9 -45 29 -38 18 7 28
-21 14 -38 -7 -8 -24 -17 -39 -21 -44 -11 -92 -64 -92 -101 0 -46 -14 -50 -43
-13 -24 31 -26 31 -48 15 -13 -9 -30 -16 -39 -16 -16 0 -40 -43 -40 -71 0 -10
12 -32 26 -49 26 -30 26 -31 8 -45 -23 -16 -35 -10 -27 13 6 15 5 15 -12 -1
-10 -10 -26 -16 -36 -14 -15 4 -29 -10 -29 -29 0 -2 160 -4 355 -4 195 0 355
2 355 4 0 3 -9 20 -20 38 -12 21 -16 38 -10 47 6 11 15 7 39 -20 17 -18 31
-36 31 -40 0 -26 74 -29 855 -29 l805 0 0 205 c0 189 -1 206 -17 203 -12 -2
-23 10 -36 37 -11 22 -26 44 -34 50 -8 6 -11 18 -7 28 7 20 63 24 82 5 9 -9
12 41 12 226 0 167 -3 235 -11 231 -6 -4 -19 2 -30 14 -11 12 -24 19 -29 16
-4 -3 -21 2 -36 10 -30 15 -40 14 -29 -4 3 -6 11 -9 16 -6 5 3 6 0 3 -8 -4
-11 -18 -14 -55 -11 -46 3 -50 2 -44 -16 5 -14 2 -20 -9 -20 -9 0 -16 -7 -16
-15 0 -9 -7 -18 -15 -21 -8 -4 -12 -11 -8 -17 4 -6 -2 -8 -16 -4 -15 3 -28 -2
-42 -16 -20 -21 -21 -21 -33 -3 -6 10 -21 29 -33 42 -13 13 -23 28 -23 34 0 6
-19 19 -42 30 -28 12 -45 28 -55 51 -7 17 -16 30 -19 26 -3 -3 -19 -1 -35 3
-27 8 -29 7 -29 -17z m254 -264 c-3 -5 -1 -9 5 -9 5 0 13 5 16 10 5 8 11 7 21
-1 11 -9 17 -9 29 1 12 10 15 10 15 0 0 -7 7 -18 17 -25 9 -7 13 -17 9 -24 -5
-8 -15 -6 -34 7 -29 20 -40 21 -60 8 -15 -9 -62 11 -62 26 0 5 5 19 11 30 11
21 12 21 25 3 7 -10 11 -22 8 -26z m226 -168 c0 -12 -20 -25 -27 -18 -7 7 6
27 18 27 5 0 9 -4 9 -9z m-302 -56 c17 -37 15 -47 -10 -43 -18 2 -23 10 -23
36 -1 38 17 42 33 7z m280 -24 c3 -8 -1 -12 -9 -9 -7 2 -15 10 -17 17 -3 8 1
12 9 9 7 -2 15 -10 17 -17z m-162 -18 c-7 -7 -26 7 -26 19 0 6 6 6 15 -2 9 -7
13 -15 11 -17z m-92 -57 c17 7 19 0 8 -29 -7 -16 -11 -14 -32 15 -13 18 -17
27 -8 20 8 -7 23 -10 32 -6z m-814 -10 c0 -11 -19 -15 -25 -6 -3 5 1 10 9 10
9 0 16 -2 16 -4z m492 -58 c15 3 19 1 16 -9 -3 -8 -11 -14 -19 -15 -43 -3 -49
-5 -49 -14 0 -19 40 -50 63 -50 30 0 60 -32 51 -54 -7 -19 -31 -21 -37 -3 -3
9 -8 9 -22 -3 -16 -13 -20 -12 -40 14 -14 18 -29 27 -38 23 -9 -3 -22 4 -34
19 -10 14 -29 37 -41 51 -20 22 -21 28 -9 34 8 5 27 3 44 -3 23 -9 36 -8 59 3
16 8 30 12 32 8 2 -4 12 -4 24 -1z m348 -44 c0 -17 -22 -14 -28 4 -2 7 3 12
12 12 9 0 16 -7 16 -16z m65 -4 c3 -5 -1 -10 -9 -10 -9 0 -16 5 -16 10 0 6 4
10 9 10 6 0 13 -4 16 -10z m-1605 -52 c17 -12 30 -30 30 -40 0 -31 41 -62 90
-68 38 -4 46 -9 48 -29 5 -33 -17 -71 -41 -71 -13 0 -17 -5 -13 -15 9 -24 -20
-17 -33 7 l-12 23 5 -23 c6 -29 -21 -27 -38 3 -6 11 -12 22 -14 24 -1 2 -13
-1 -26 -9 -14 -7 -36 -10 -51 -6 -23 6 -26 11 -21 31 4 15 0 34 -8 48 -8 12
-16 33 -18 47 -2 21 3 27 30 35 26 7 32 14 32 37 0 34 3 34 40 6z m-160 -34
c0 -17 -22 -14 -28 4 -2 7 3 12 12 12 9 0 16 -7 16 -16z m1576 -111 c4 -13 3
-27 0 -30 -11 -12 -49 34 -43 51 9 22 36 9 43 -21z m-1674 -23 c7 -11 20 -20
29 -20 9 0 23 -7 30 -16 11 -14 10 -18 -6 -30 -26 -20 -42 -17 -56 7 -8 15
-18 20 -38 17 -25 -4 -27 -2 -17 16 28 53 38 58 58 26z m1051 -15 c1 -5 -6
-11 -15 -13 -11 -2 -18 3 -18 13 0 17 30 18 33 0z m-1133 -44 c0 -15 -16 -22
-34 -15 -25 9 -19 24 9 24 14 0 25 -4 25 -9z"/>
<path d="M10015 1072 c-10 -11 -5 -24 9 -19 7 3 18 1 24 -5 5 -5 12 -6 15 -1
6 10 -39 34 -48 25z"/>
<path d="M10001 1031 c-8 -5 -9 -11 -3 -15 5 -3 12 1 16 9 6 17 6 18 -13 6z"/>
<path d="M9320 901 c0 -12 28 -41 41 -41 14 0 11 -28 -3 -33 -10 -3 -10 -8 -2
-16 13 -14 44 -4 44 13 0 7 -5 17 -11 23 -6 6 -17 22 -23 35 -12 23 -46 38
-46 19z"/>
<path d="M8810 857 c-34 -9 -46 -18 -50 -36 -6 -27 -30 -41 -30 -17 0 8 -4 17
-9 20 -14 9 -41 -4 -41 -19 0 -14 28 -25 80 -31 19 -2 52 -6 74 -9 34 -5 42
-2 73 31 32 34 36 36 59 23 21 -11 27 -11 34 1 14 22 4 28 -58 35 -31 4 -64 8
-72 10 -8 2 -35 -2 -60 -8z"/>
<path d="M557 796 c-6 -15 1 -26 15 -26 11 0 10 27 -1 34 -5 3 -11 0 -14 -8z"/>
<path d="M4940 575 c0 -17 2 -18 24 -9 23 9 20 24 -4 24 -11 0 -20 -7 -20 -15z"/>
<path d="M10197 515 c-4 -8 -2 -17 3 -20 6 -4 10 3 10 14 0 25 -6 27 -13 6z"/>
<path d="M632 448 c2 -12 9 -23 16 -26 18 -6 15 35 -4 42 -11 4 -15 0 -12 -16z"/>
<path d="M8395 390 c-7 -11 42 -37 51 -27 9 9 -15 37 -32 37 -7 0 -16 -4 -19
-10z"/>
<path d="M746 363 c-9 -22 -8 -23 13 -23 11 0 23 -4 26 -10 8 -12 35 -13 35
-1 0 5 -15 18 -34 29 -30 18 -35 18 -40 5z"/>
<path d="M8607 344 c-14 -14 -7 -35 11 -32 9 2 17 10 17 17 0 16 -18 25 -28
15z"/>
<path d="M8671 276 c-15 -18 -7 -36 16 -36 9 0 13 -6 9 -15 -3 -8 -1 -15 4
-15 13 0 13 12 -3 49 -12 28 -15 30 -26 17z"/>
<path d="M5501 119 c-6 -10 -11 -27 -11 -37 0 -11 -9 -29 -20 -42 -27 -31 -25
-40 6 -40 14 0 23 4 20 9 -3 5 7 23 22 39 33 35 35 50 12 73 -16 15 -18 15
-29 -2z"/>
<path d="M7392 114 c1 -9 9 -19 16 -22 9 -3 13 2 10 14 -1 9 -9 19 -16 22 -9
3 -13 -2 -10 -14z"/>
<path d="M866 111 c-4 -5 -2 -12 3 -15 5 -4 12 -2 15 3 4 5 2 12 -3 15 -5 4
-12 2 -15 -3z"/>
<path d="M1559 73 c-11 -20 -10 -26 4 -40 15 -16 18 -15 37 2 26 24 25 38 -4
51 -21 10 -26 8 -37 -13z"/>
<path d="M7470 51 c5 -10 16 -23 24 -30 12 -10 17 -9 25 8 13 23 3 32 -35 37
-20 2 -22 -1 -14 -15z"/>
<path d="M1120 21 c0 -12 5 -21 10 -21 6 0 10 6 10 14 0 8 -4 18 -10 21 -5 3
-10 -3 -10 -14z"/>
<path d="M7133 20 c1 -17 8 -20 52 -20 38 1 46 3 33 11 -9 5 -29 7 -43 5 -17
-3 -25 0 -25 10 0 8 -4 14 -9 14 -6 0 -9 -9 -8 -20z"/>
<path d="M586 15 c-4 -10 1 -15 16 -15 17 0 18 2 8 15 -15 19 -16 19 -24 0z"/>
<path d="M7691 16 c-12 -14 -8 -16 35 -16 50 0 52 13 3 25 -17 4 -30 1 -38 -9z"/>
<path d="M690 10 c0 -5 7 -10 15 -10 8 0 15 5 15 10 0 6 -7 10 -15 10 -8 0
-15 -4 -15 -10z"/>
</g>
</svg>
